<?xml version="1.0" encoding="UTF-8"?>
<!-- Generator: visioncortex VTracer 0.6.12 -->
<svg version="1.1" xmlns="http://www.w3.org/2000/svg" width="1024" height="1024">
<path d="M0 0 C1.145 0.545 2.29 1.091 3.469 1.653 C4.68 2.247 5.891 2.842 7.102 3.438 C8.365 4.044 9.629 4.649 10.894 5.252 C13.388 6.441 15.88 7.636 18.369 8.835 C22.496 10.805 26.66 12.672 30.852 14.5 C37.955 17.621 45 20.861 52.039 24.125 C71.584 33.178 91.247 41.971 110.994 50.573 C118.969 54.059 126.852 57.732 134.727 61.438 C135.031 61.581 135.031 61.581 136.57 62.305 C139.005 63.45 141.44 64.597 143.875 65.743 C157.671 72.238 171.505 78.639 185.398 84.926 C195.85 89.657 206.27 94.454 216.664 99.312 C217.317 99.618 217.971 99.923 218.644 100.238 C229.172 105.16 229.172 105.16 231.727 106.438 C234.966 106.963 238.213 107.399 241.465 107.84 C246.295 108.725 249.732 110.124 253.414 113.375 C253.995 113.879 254.577 114.383 255.176 114.902 C256.727 116.438 256.727 116.438 258.727 119.438 C260.949 120.543 260.949 120.543 263.789 121.625 C269.127 123.762 274.381 126.027 279.602 128.438 C280.314 128.757 281.027 129.077 281.762 129.407 C286.684 131.696 292.201 134.386 294.727 139.438 C295.276 144.449 295.288 148.334 292.977 152.875 C288.466 158.012 284.496 159.236 277.977 160.625 C277.184 160.802 276.391 160.979 275.574 161.162 C273.627 161.596 271.677 162.018 269.727 162.438 C269.619 165.598 269.741 168.418 270.727 171.438 C272.618 172.922 274.436 173.671 276.664 174.562 C281.815 176.748 284.746 181.358 286.992 186.273 C288.675 191.232 288.56 195.374 286.598 200.23 C285.382 202.685 284.109 205.073 282.727 207.438 C283.197 207.801 283.668 208.165 284.152 208.539 C289.399 212.776 292.262 216.168 293.243 223.07 C294.002 230.526 294.256 238.026 294.586 245.512 C294.622 246.323 294.658 247.135 294.695 247.971 C294.883 252.258 295.068 256.544 295.249 260.83 C295.399 264.366 295.558 267.901 295.726 271.436 C295.93 275.725 296.117 280.015 296.294 284.305 C296.363 285.933 296.438 287.561 296.519 289.189 C296.63 291.463 296.721 293.738 296.808 296.014 C296.865 297.306 296.921 298.598 296.98 299.929 C296.641 304.622 295.259 307.972 291.844 311.238 C280.607 317.603 258.979 315.921 246.727 313.133 C243.013 311.842 240.692 309.963 238.608 306.67 C237.481 303.816 237.563 301.653 237.68 298.586 C237.721 297.366 237.762 296.146 237.804 294.888 C237.861 293.53 237.919 292.171 237.977 290.812 C238.031 289.389 238.084 287.966 238.137 286.543 C238.258 283.344 238.385 280.144 238.515 276.945 C238.715 271.894 238.877 266.843 239.034 261.79 C239.176 257.275 239.331 252.76 239.488 248.245 C239.563 246.007 239.635 243.769 239.702 241.531 C239.799 238.352 239.913 235.174 240.031 231.996 C240.056 231.048 240.081 230.101 240.107 229.124 C240.366 222.8 241.052 216.562 245.332 211.562 C246.797 210.521 248.262 209.479 249.727 208.438 C248.609 205.601 247.446 202.866 246.102 200.125 C244.206 195.041 243.668 191.139 245.641 186.105 C247.626 182.243 249.448 179.42 253.039 176.938 C255.727 174.438 255.727 174.438 255.989 172.225 C255.973 171.821 255.973 171.821 255.895 169.781 C255.882 169.375 255.882 169.375 255.821 167.318 C255.805 167.008 255.805 167.008 255.727 165.438 C249.08 166.978 242.435 168.52 235.789 170.062 C234.805 170.291 233.821 170.519 232.807 170.755 C221.435 173.395 210.071 176.056 198.727 178.812 C191.537 180.554 184.339 182.218 177.102 183.75 C176.349 183.91 175.596 184.069 174.82 184.234 C170.47 185.135 166.131 185.854 161.727 186.438 C161.871 187.323 162.015 188.209 162.164 189.121 C164.257 203.09 165.259 216.839 160.727 230.438 C161.717 231.221 162.707 232.005 163.727 232.812 C164.222 233.246 164.222 233.246 166.727 235.438 C166.727 236.097 166.727 236.757 166.727 237.438 C167.387 237.438 168.047 237.438 168.727 237.438 C168.727 238.097 168.727 238.757 168.727 239.438 C169.296 239.676 169.866 239.914 170.453 240.16 C186.575 249.218 198.762 273.874 207.727 289.438 C208.079 290.039 208.431 290.64 208.794 291.26 C228.514 325.17 237.739 364.129 248.106 401.589 C267.097 470.175 267.097 470.175 282.227 478.875 C290.73 480.788 298.138 478.125 305.48 473.824 C311.161 470.006 316.492 466.143 318.727 459.438 C317.898 459.347 317.069 459.257 316.215 459.164 C312.046 458.296 308.686 456.739 304.914 454.812 C304.209 454.456 303.504 454.099 302.778 453.731 C295.09 449.737 288.63 444.795 282.727 438.438 C282.145 437.873 281.564 437.308 280.965 436.727 C270.758 426.259 264.875 412.543 261.727 398.438 C261.615 398.013 261.615 398.013 261.051 395.863 C257.742 381.525 256.837 357.294 264.727 344.438 C267.567 341.913 268.962 341.407 272.762 341.559 C277.942 342.413 282.346 345.026 286.914 347.5 C287.844 347.997 288.775 348.493 289.733 349.005 C296.693 352.767 303.336 356.76 309.727 361.438 C310.508 362.009 311.289 362.58 312.094 363.168 C317.939 367.587 323.369 372.444 328.727 377.438 C329.491 378.136 330.255 378.835 331.043 379.555 C338.875 386.992 345.074 395.679 349.727 405.438 C353.065 403.915 355.806 401.962 358.727 399.75 C382.802 382.177 410.274 375.407 439.727 375.188 C440.15 375.183 440.15 375.183 442.296 375.159 C449.049 375.194 456.549 375.395 462.352 379.125 C464.906 383.422 463.904 388.136 462.809 392.82 C462.397 394.404 461.973 395.985 461.539 397.562 C461.313 398.398 461.086 399.233 460.853 400.094 C453.886 425.191 439.606 448.825 416.387 461.996 C415.509 462.472 414.631 462.947 413.727 463.438 C412.777 463.965 411.826 464.492 410.848 465.035 C393.97 473.991 375.108 475.467 356.727 470.438 C356.607 471.306 356.487 472.174 356.364 473.068 C355.274 478.832 352.847 484.103 350.602 489.5 C350.471 489.815 350.471 489.815 349.809 491.411 C340.971 512.609 330.847 533.228 316.727 551.438 C315.838 552.626 314.952 553.817 314.066 555.008 C305.789 565.996 296.556 576.91 285.727 585.438 C284.789 587.438 284.789 587.438 284.727 589.438 C285.036 590.056 285.345 590.675 285.664 591.312 C287.153 594.291 287.188 596.139 286.727 599.438 C278.545 610.973 262.948 614.046 249.727 616.438 C248.166 616.589 246.604 616.72 245.039 616.812 C239.132 617.3 233.874 620.208 228.543 622.62 C209.147 631.348 188.44 637.723 167.727 642.438 C166.256 642.813 164.786 643.19 163.316 643.57 C122.943 653.725 80.232 656.777 38.727 657.438 C37.444 657.459 36.161 657.481 34.839 657.504 C-47.196 658.773 -132.396 649.912 -206.211 611.875 C-207.241 611.345 -208.272 610.815 -209.333 610.269 C-219.482 604.959 -228.994 598.827 -238.273 592.125 C-239.047 591.567 -239.82 591.008 -240.617 590.433 C-246.92 585.819 -252.606 580.815 -258.273 575.438 C-259.54 574.369 -260.81 573.307 -262.086 572.25 C-279.822 556.682 -293.603 537.367 -304.273 516.438 C-304.846 515.344 -305.418 514.251 -306.008 513.125 C-332.72 459.151 -318.855 385.623 -302.273 330.438 C-302.021 329.592 -301.768 328.746 -301.508 327.875 C-283.717 269.222 -243.911 219.291 -189.961 190.312 C-189.237 189.922 -188.514 189.531 -187.768 189.128 C-182.642 186.438 -182.642 186.438 -179.273 186.438 C-179.292 186.101 -179.292 186.101 -179.385 184.4 C-179.607 177.275 -178.506 171.608 -176.086 164.938 C-175.77 164.028 -175.454 163.118 -175.129 162.18 C-173.088 156.401 -170.846 150.794 -168.121 145.301 C-167.273 143.438 -167.273 143.438 -167.273 141.438 C-167.85 141.112 -168.426 140.786 -169.02 140.45 C-169.837 139.989 -170.654 139.527 -171.496 139.051 C-172.415 138.531 -173.335 138.012 -174.282 137.476 C-176.347 136.309 -178.411 135.142 -180.476 133.975 C-185.711 131.016 -190.947 128.057 -196.184 125.102 C-206.293 119.395 -216.397 113.68 -226.465 107.902 C-230.989 105.307 -235.523 102.735 -240.078 100.195 C-241.031 99.66 -241.984 99.126 -242.966 98.574 C-244.786 97.554 -246.609 96.54 -248.436 95.533 C-259.222 89.46 -259.222 89.46 -261.273 83.562 C-261.273 79.47 -260.284 76.99 -258.273 73.438 C-255.012 71.164 -251.836 69.817 -248.046 68.67 C-247.012 68.354 -245.978 68.037 -244.913 67.711 C-244.351 67.543 -244.351 67.543 -241.508 66.691 C-240.317 66.329 -239.126 65.966 -237.899 65.592 C-235.307 64.804 -232.716 64.018 -230.122 63.237 C-225.954 61.98 -221.788 60.714 -217.623 59.447 C-213.252 58.117 -208.88 56.787 -204.508 55.461 C-194.708 52.487 -184.915 49.491 -175.129 46.473 C-174.473 46.27 -173.817 46.068 -173.141 45.86 C-170.49 45.042 -167.839 44.224 -165.188 43.406 C-137.365 34.822 -109.523 26.301 -81.659 17.847 C-80.951 17.632 -80.242 17.417 -79.512 17.196 C-78.809 16.983 -78.106 16.769 -77.382 16.55 C-76.685 16.338 -75.988 16.127 -75.27 15.909 C-73.879 15.487 -72.489 15.065 -71.098 14.643 C-63.013 12.191 -54.934 9.722 -46.864 7.221 C-42.815 5.967 -38.765 4.721 -34.714 3.475 C-32.908 2.918 -31.104 2.356 -29.301 1.79 C-26.882 1.031 -24.459 0.286 -22.035 -0.457 C-21.355 -0.675 -20.675 -0.892 -19.975 -1.116 C-12.721 -3.307 -6.918 -3.36 0 0 Z " fill="#80B2D1" transform="translate(457.2734375,129.5625)"/>
<path d="M0 0 C1.145 0.545 2.29 1.091 3.469 1.653 C4.68 2.247 5.891 2.842 7.102 3.438 C8.365 4.044 9.629 4.649 10.894 5.252 C13.388 6.441 15.88 7.636 18.369 8.835 C22.496 10.805 26.66 12.672 30.852 14.5 C37.955 17.621 45 20.861 52.039 24.125 C71.584 33.178 91.247 41.971 110.994 50.573 C118.969 54.059 126.852 57.732 134.727 61.438 C135.031 61.581 135.031 61.581 136.57 62.305 C139.005 63.45 141.44 64.597 143.875 65.743 C157.671 72.238 171.505 78.639 185.398 84.926 C195.85 89.657 206.27 94.454 216.664 99.312 C217.317 99.618 217.971 99.923 218.644 100.238 C229.172 105.16 229.172 105.16 231.727 106.438 C234.966 106.963 238.213 107.399 241.465 107.84 C246.295 108.725 249.732 110.124 253.414 113.375 C253.995 113.879 254.577 114.383 255.176 114.902 C256.727 116.438 256.727 116.438 258.727 119.438 C260.949 120.543 260.949 120.543 263.789 121.625 C269.127 123.762 274.381 126.027 279.602 128.438 C280.314 128.757 281.027 129.077 281.762 129.407 C286.684 131.696 292.201 134.386 294.727 139.438 C295.276 144.449 295.288 148.334 292.977 152.875 C288.466 158.012 284.496 159.236 277.977 160.625 C277.184 160.802 276.391 160.979 275.574 161.162 C273.627 161.596 271.677 162.018 269.727 162.438 C269.619 165.598 269.741 168.418 270.727 171.438 C272.618 172.922 274.436 173.671 276.664 174.562 C281.815 176.748 284.746 181.358 286.992 186.273 C288.675 191.232 288.56 195.374 286.598 200.23 C285.382 202.685 284.109 205.073 282.727 207.438 C283.197 207.801 283.668 208.165 284.152 208.539 C289.399 212.776 292.262 216.168 293.243 223.07 C294.002 230.526 294.256 238.026 294.586 245.512 C294.622 246.323 294.658 247.135 294.695 247.971 C294.883 252.258 295.068 256.544 295.249 260.83 C295.399 264.366 295.558 267.901 295.726 271.436 C295.93 275.725 296.117 280.015 296.294 284.305 C296.363 285.933 296.438 287.561 296.519 289.189 C296.63 291.463 296.721 293.738 296.808 296.014 C296.865 297.306 296.921 298.598 296.98 299.929 C296.641 304.622 295.259 307.972 291.844 311.238 C280.607 317.603 258.979 315.921 246.727 313.133 C243.013 311.842 240.692 309.963 238.608 306.67 C237.481 303.816 237.563 301.653 237.68 298.586 C237.721 297.366 237.762 296.146 237.804 294.888 C237.861 293.53 237.919 292.171 237.977 290.812 C238.031 289.389 238.084 287.966 238.137 286.543 C238.258 283.344 238.385 280.144 238.515 276.945 C238.715 271.894 238.877 266.843 239.034 261.79 C239.176 257.275 239.331 252.76 239.488 248.245 C239.563 246.007 239.635 243.769 239.702 241.531 C239.799 238.352 239.913 235.174 240.031 231.996 C240.056 231.048 240.081 230.101 240.107 229.124 C240.366 222.8 241.052 216.562 245.332 211.562 C246.797 210.521 248.262 209.479 249.727 208.438 C248.609 205.601 247.446 202.866 246.102 200.125 C244.206 195.041 243.668 191.139 245.641 186.105 C247.626 182.243 249.448 179.42 253.039 176.938 C255.727 174.438 255.727 174.438 255.989 172.225 C255.973 171.821 255.973 171.821 255.895 169.781 C255.882 169.375 255.882 169.375 255.821 167.318 C255.805 167.008 255.805 167.008 255.727 165.438 C249.08 166.978 242.435 168.52 235.789 170.062 C234.805 170.291 233.821 170.519 232.807 170.755 C221.435 173.395 210.071 176.056 198.727 178.812 C191.537 180.554 184.339 182.218 177.102 183.75 C176.349 183.91 175.596 184.069 174.82 184.234 C170.47 185.135 166.131 185.854 161.727 186.438 C161.871 187.323 162.015 188.209 162.164 189.121 C164.257 203.09 165.259 216.839 160.727 230.438 C161.717 231.221 162.707 232.005 163.727 232.812 C164.222 233.246 164.222 233.246 166.727 235.438 C166.727 236.097 166.727 236.757 166.727 237.438 C167.387 237.438 168.047 237.438 168.727 237.438 C168.727 238.097 168.727 238.757 168.727 239.438 C169.296 239.676 169.866 239.914 170.453 240.16 C186.575 249.218 198.762 273.874 207.727 289.438 C208.079 290.039 208.431 290.64 208.794 291.26 C228.514 325.17 237.739 364.129 248.106 401.589 C267.097 470.175 267.097 470.175 282.227 478.875 C290.73 480.788 298.138 478.125 305.48 473.824 C311.161 470.006 316.492 466.143 318.727 459.438 C317.898 459.347 317.069 459.257 316.215 459.164 C312.046 458.296 308.686 456.739 304.914 454.812 C304.209 454.456 303.504 454.099 302.778 453.731 C295.09 449.737 288.63 444.795 282.727 438.438 C282.145 437.873 281.564 437.308 280.965 436.727 C270.758 426.259 264.875 412.543 261.727 398.438 C261.615 398.013 261.615 398.013 261.051 395.863 C257.742 381.525 256.837 357.294 264.727 344.438 C267.567 341.913 268.962 341.407 272.762 341.559 C277.942 342.413 282.346 345.026 286.914 347.5 C287.844 347.997 288.775 348.493 289.733 349.005 C296.693 352.767 303.336 356.76 309.727 361.438 C310.508 362.009 311.289 362.58 312.094 363.168 C317.939 367.587 323.369 372.444 328.727 377.438 C329.491 378.136 330.255 378.835 331.043 379.555 C338.875 386.992 345.074 395.679 349.727 405.438 C353.065 403.915 355.806 401.962 358.727 399.75 C382.802 382.177 410.274 375.407 439.727 375.188 C440.15 375.183 440.15 375.183 442.296 375.159 C449.049 375.194 456.549 375.395 462.352 379.125 C464.906 383.422 463.904 388.136 462.809 392.82 C462.397 394.404 461.973 395.985 461.539 397.562 C461.313 398.398 461.086 399.233 460.853 400.094 C453.886 425.191 439.606 448.825 416.387 461.996 C415.509 462.472 414.631 462.947 413.727 463.438 C412.777 463.965 411.826 464.492 410.848 465.035 C393.97 473.991 375.108 475.467 356.727 470.438 C356.607 471.306 356.487 472.174 356.364 473.068 C355.274 478.832 352.847 484.103 350.602 489.5 C350.471 489.815 350.471 489.815 349.809 491.411 C340.971 512.609 330.847 533.228 316.727 551.438 C315.838 552.626 314.952 553.817 314.066 555.008 C305.789 565.996 296.556 576.91 285.727 585.438 C284.789 587.438 284.789 587.438 284.727 589.438 C285.036 590.056 285.345 590.675 285.664 591.312 C287.153 594.291 287.188 596.139 286.727 599.438 C278.545 610.973 262.948 614.046 249.727 616.438 C248.166 616.589 246.604 616.72 245.039 616.812 C239.132 617.3 233.874 620.208 228.543 622.62 C209.147 631.348 188.44 637.723 167.727 642.438 C166.256 642.813 164.786 643.19 163.316 643.57 C122.943 653.725 80.232 656.777 38.727 657.438 C37.444 657.459 36.161 657.481 34.839 657.504 C-47.196 658.773 -132.396 649.912 -206.211 611.875 C-207.241 611.345 -208.272 610.815 -209.333 610.269 C-219.482 604.959 -228.994 598.827 -238.273 592.125 C-239.047 591.567 -239.82 591.008 -240.617 590.433 C-246.92 585.819 -252.606 580.815 -258.273 575.438 C-259.54 574.369 -260.81 573.307 -262.086 572.25 C-279.822 556.682 -293.603 537.367 -304.273 516.438 C-304.846 515.344 -305.418 514.251 -306.008 513.125 C-332.72 459.151 -318.855 385.623 -302.273 330.438 C-302.021 329.592 -301.768 328.746 -301.508 327.875 C-283.717 269.222 -243.911 219.291 -189.961 190.312 C-189.237 189.922 -188.514 189.531 -187.768 189.128 C-182.642 186.438 -182.642 186.438 -179.273 186.438 C-179.292 186.101 -179.292 186.101 -179.385 184.4 C-179.607 177.275 -178.506 171.608 -176.086 164.938 C-175.77 164.028 -175.454 163.118 -175.129 162.18 C-173.088 156.401 -170.846 150.794 -168.121 145.301 C-167.273 143.438 -167.273 143.438 -167.273 141.438 C-167.85 141.112 -168.426 140.786 -169.02 140.45 C-169.837 139.989 -170.654 139.527 -171.496 139.051 C-172.415 138.531 -173.335 138.012 -174.282 137.476 C-176.347 136.309 -178.411 135.142 -180.476 133.975 C-185.711 131.016 -190.947 128.057 -196.184 125.102 C-206.293 119.395 -216.397 113.68 -226.465 107.902 C-230.989 105.307 -235.523 102.735 -240.078 100.195 C-241.031 99.66 -241.984 99.126 -242.966 98.574 C-244.786 97.554 -246.609 96.54 -248.436 95.533 C-259.222 89.46 -259.222 89.46 -261.273 83.562 C-261.273 79.47 -260.284 76.99 -258.273 73.438 C-255.012 71.164 -251.836 69.817 -248.046 68.67 C-247.012 68.354 -245.978 68.037 -244.913 67.711 C-244.351 67.543 -244.351 67.543 -241.508 66.691 C-240.317 66.329 -239.126 65.966 -237.899 65.592 C-235.307 64.804 -232.716 64.018 -230.122 63.237 C-225.954 61.98 -221.788 60.714 -217.623 59.447 C-213.252 58.117 -208.88 56.787 -204.508 55.461 C-194.708 52.487 -184.915 49.491 -175.129 46.473 C-174.473 46.27 -173.817 46.068 -173.141 45.86 C-170.49 45.042 -167.839 44.224 -165.188 43.406 C-137.365 34.822 -109.523 26.301 -81.659 17.847 C-80.951 17.632 -80.242 17.417 -79.512 17.196 C-78.809 16.983 -78.106 16.769 -77.382 16.55 C-76.685 16.338 -75.988 16.127 -75.27 15.909 C-73.879 15.487 -72.489 15.065 -71.098 14.643 C-63.013 12.191 -54.934 9.722 -46.864 7.221 C-42.815 5.967 -38.765 4.721 -34.714 3.475 C-32.908 2.918 -31.104 2.356 -29.301 1.79 C-26.882 1.031 -24.459 0.286 -22.035 -0.457 C-21.355 -0.675 -20.675 -0.892 -19.975 -1.116 C-12.721 -3.307 -6.918 -3.36 0 0 Z M-222.273 227.438 C-223.14 228.117 -224.006 228.796 -224.898 229.496 C-227.782 231.853 -229.921 234.556 -232.273 237.438 C-234.483 239.706 -236.733 241.922 -239.024 244.108 C-244.118 249.055 -248.491 254.297 -252.711 260 C-253.362 260.876 -254.013 261.752 -254.684 262.655 C-263.648 274.869 -270.803 287.762 -277.273 301.438 C-277.607 302.137 -277.941 302.837 -278.285 303.558 C-287.082 322.137 -293.001 341.356 -297.273 361.438 C-297.417 362.11 -297.561 362.782 -297.709 363.475 C-300.547 377.003 -302.431 390.746 -304.273 404.438 C-304.335 404.889 -304.335 404.889 -304.646 407.177 C-306.344 420.272 -306.476 433.378 -306.523 446.562 C-306.529 447.408 -306.534 448.253 -306.54 449.123 C-306.586 458.776 -306.276 467.951 -304.273 477.438 C-304.162 478.072 -304.162 478.072 -303.598 481.285 C-302.077 488.965 -299.806 495.474 -296.273 502.438 C-295.676 503.685 -295.081 504.934 -294.488 506.184 C-285.351 525.234 -273.293 541.714 -258.702 556.946 C-257.387 558.319 -256.083 559.704 -254.781 561.09 C-224.588 592.421 -181.653 613.037 -140.211 624.375 C-139.889 624.463 -139.889 624.463 -138.261 624.91 C-109.918 632.681 -81.615 638.282 -52.336 641.125 C-51.118 641.244 -49.901 641.363 -48.646 641.486 C-44.857 641.837 -41.068 642.148 -37.273 642.438 C-36.009 642.535 -34.744 642.633 -33.441 642.734 C-17.472 643.826 -1.435 643.625 14.562 643.623 C17.977 643.623 21.391 643.63 24.805 643.643 C54.092 643.759 83.644 643.658 112.664 639.25 C113.384 639.144 114.103 639.038 114.845 638.93 C120.147 638.15 125.439 637.311 130.727 636.438 C131.465 636.316 132.204 636.195 132.966 636.07 C151.522 632.996 169.651 628.901 187.727 623.688 C188.558 623.449 189.389 623.211 190.246 622.965 C192.597 622.286 194.944 621.592 197.289 620.891 C197.637 620.789 197.637 620.789 199.399 620.276 C203.031 619.164 205.859 617.953 208.727 615.438 C208.023 615.207 207.319 614.976 206.594 614.738 C164.105 600.705 128.306 577.836 106.727 537.438 C105.36 534.705 105.598 532.456 105.727 529.438 C106.727 528.438 106.727 528.438 109.516 527.977 C112.727 528.438 112.727 528.438 115 531.148 C115.72 532.358 116.42 533.581 117.102 534.812 C117.879 536.112 118.66 537.409 119.445 538.703 C119.637 539.023 119.637 539.023 120.609 540.643 C126.08 549.433 133.661 556.922 140.727 564.438 C141.421 565.21 142.116 565.982 142.832 566.777 C155.882 580.736 173.908 590.918 191.727 597.438 C192.526 597.774 193.325 598.11 194.148 598.457 C208.312 604.187 223.611 605.237 238.727 604.438 C239.084 604.419 239.084 604.419 240.895 604.325 C252.257 603.618 262.183 600.634 272.727 596.438 C270.529 590.029 266.08 585.51 261.727 580.438 C261.091 579.689 260.456 578.94 259.801 578.168 C257.5 575.535 255.13 572.976 252.727 570.438 C252.079 569.751 251.432 569.064 250.765 568.357 C239.938 556.963 228.882 547.052 215.727 538.438 C215.137 538.045 214.547 537.653 213.939 537.249 C205.836 531.896 197.277 527.559 188.557 523.326 C185.96 522.065 183.374 520.785 180.789 519.5 C180.017 519.12 179.245 518.739 178.449 518.348 C176.727 517.438 176.727 517.438 175.727 516.438 C175.602 513.438 175.602 513.438 175.727 510.438 C176.727 509.438 176.727 509.438 179.727 509.125 C183.65 509.204 186.485 510.426 189.98 512.129 C192.65 513.401 195.363 514.505 198.103 515.613 C212.593 521.593 225.813 530.297 237.727 540.438 C238.141 540.761 238.141 540.761 240.238 542.398 C251.699 551.4 262.163 561.784 270.895 573.461 C272.727 575.438 272.727 575.438 274.574 576.559 C278.27 576.351 280.448 573.584 282.977 571.125 C283.531 570.613 284.085 570.1 284.656 569.572 C286.062 568.244 287.4 566.845 288.727 565.438 C288.727 564.777 288.727 564.118 288.727 563.438 C289.387 563.438 290.047 563.438 290.727 563.438 C293.274 560.972 295.463 558.163 297.727 555.438 C298.326 554.736 298.925 554.035 299.543 553.312 C311.341 539.126 321.225 522.994 329.164 506.375 C329.519 505.636 329.874 504.896 330.239 504.135 C332.727 498.805 332.727 498.805 332.727 495.438 C333.387 495.438 334.047 495.438 334.727 495.438 C335.067 494.396 335.407 493.354 335.758 492.281 C338.355 484.524 341.188 476.977 344.789 469.625 C345.105 468.962 345.421 468.3 345.746 467.617 C347.799 463.553 349.844 460.85 353.727 458.438 C355.937 458.012 355.937 458.012 358.102 458.125 C358.811 458.149 359.52 458.174 360.25 458.199 C362.163 458.383 364.069 458.646 365.969 458.941 C384.223 461.351 400.303 458.006 415.559 447.484 C418.036 445.551 420.393 443.542 422.727 441.438 C423.411 440.846 424.096 440.254 424.801 439.645 C435.632 429.664 442.7 415.586 446.977 401.688 C447.245 400.851 447.513 400.014 447.789 399.152 C448.989 395.314 449.727 392.521 449.727 388.438 C412.912 387.688 382.519 394.567 354.527 419.555 C352.727 421.438 352.727 421.438 352.727 423.438 C350.087 423.768 347.447 424.097 344.727 424.438 C342.572 421.043 341.039 417.771 339.664 414 C329.916 390.188 306.901 374.333 285.664 361.375 C285.045 360.993 284.426 360.611 283.788 360.217 C280.461 358.232 277.586 356.912 273.727 356.438 C270.371 381.902 273.807 406.171 289.039 427.188 C298.161 438.452 309.935 444.232 323.52 448.208 C329.258 449.966 329.258 449.966 331.734 452.457 C333.241 455.464 333.225 457.072 332.727 460.438 C327.893 473.573 317.928 482.207 305.727 488.438 C296.943 492.146 287.895 494.326 278.602 491.312 C264.609 485.1 257.739 471.849 252.352 458.188 C251.387 455.661 250.441 453.128 249.514 450.587 C248.884 448.868 248.225 447.161 247.555 445.457 C242.119 431.444 238.727 416.556 234.975 402.026 C223.891 359.275 211.479 314.964 185.727 278.438 C184.959 277.308 184.192 276.178 183.426 275.047 C178.072 267.232 172.235 260.195 165.625 253.417 C163.39 251.086 161.221 248.7 159.043 246.316 C142.757 228.818 142.757 228.818 131.067 227.688 C128.19 227.38 125.355 226.905 122.5 226.43 C102.569 223.194 82.858 221.084 62.664 221.25 C60.882 221.257 59.101 221.263 57.319 221.27 C45.758 221.325 34.205 221.565 22.649 221.869 C6.103 222.304 -10.44 222.599 -26.992 222.67 C-29.301 222.681 -31.611 222.698 -33.92 222.721 C-49.292 222.865 -64.092 221.882 -79.273 219.438 C-80.494 219.243 -81.715 219.049 -82.972 218.848 C-85.684 218.39 -88.385 217.896 -91.086 217.375 C-91.948 217.215 -92.809 217.054 -93.697 216.889 C-95.402 216.569 -97.105 216.245 -98.808 215.915 C-100.426 215.602 -102.045 215.297 -103.667 215.003 C-110.733 213.681 -117.575 211.741 -124.461 209.688 C-125.655 209.333 -126.849 208.978 -128.079 208.612 C-136.718 206.001 -144.981 202.984 -153.273 199.438 C-155.685 198.467 -158.102 197.508 -160.523 196.562 C-161.042 196.358 -161.042 196.358 -163.664 195.32 C-180.22 189.719 -210.471 217.217 -222.273 227.438 Z " fill="#2C3C5A" transform="translate(457.2734375,129.5625)"/>
<path d="M0 0 C2 0 2 0 4 1 C5.046 2.638 6.04 4.31 7 6 C8.622 7.769 10.243 9.374 12 11 C12.362 11.347 12.362 11.347 14.195 13.105 C24.804 23.032 34.041 28.393 48.789 28.207 C51.596 28.026 54.037 27.637 56.75 26.938 C65.031 24.867 71.694 27.413 79.41 30.547 C82.574 31.828 85.751 33.022 88.957 34.19 C102.444 39.123 115.225 45.477 128 52 C128.37 52.188 128.37 52.188 130.243 53.141 C164.245 70.496 196.166 91.978 225 117 C225.7 117.599 226.4 118.199 227.121 118.816 C231.928 122.964 236.574 127.282 241.225 131.602 C244.084 134.252 246.963 136.855 249.938 139.375 C258.253 146.576 266.185 154.578 273.27 162.992 C274.686 164.636 276.155 166.235 277.637 167.82 C277.868 168.068 277.868 168.068 279.038 169.32 C280.374 170.745 281.716 172.163 283.059 173.582 C285 176 285 176 285 179 C255.135 186.228 224.864 191.282 194.176 193.066 C193.802 193.088 193.802 193.088 191.911 193.198 C174.873 194.166 157.854 194.308 140.792 194.261 C136.635 194.249 132.478 194.256 128.321 194.268 C82.885 194.374 36.459 191.833 -7.556 179.673 C-10.708 178.805 -13.866 177.961 -17.023 177.113 C-18.971 176.587 -20.918 176.058 -22.865 175.529 C-24.755 175.016 -26.646 174.504 -28.537 173.993 C-35.832 171.985 -42.939 169.718 -50 167 C-50.855 166.673 -51.709 166.346 -52.59 166.009 C-59.538 163.322 -66.277 160.202 -73 157 C-73.611 156.711 -74.222 156.423 -74.852 156.125 C-98.742 144.785 -120.582 130.076 -139.456 111.513 C-140.8 110.196 -142.168 108.902 -143.539 107.613 C-161.283 90.653 -177.981 66.681 -185 43 C-185 42.01 -185 41.02 -185 40 C-184.481 39.713 -183.962 39.426 -183.427 39.13 C-181.055 37.817 -178.684 36.502 -176.312 35.188 C-175.496 34.736 -174.679 34.284 -173.838 33.818 C-167.391 30.243 -167.391 30.243 -164.305 28.328 C-161.56 26.746 -158.781 25.665 -155.812 24.562 C-149.391 22.163 -149.391 22.163 -146.736 21.054 C-140.552 18.48 -134.378 16.591 -127.875 15 C-126.842 14.746 -125.81 14.492 -124.746 14.23 C-108.006 10.22 -91.215 7.457 -74 7 C-72.549 6.915 -71.099 6.828 -69.648 6.738 C-57.986 6.17 -57.986 6.17 -53.875 9.812 C-52.902 10.862 -51.942 11.923 -51 13 C-45.231 17.121 -38.802 16.777 -32 16 C-21.5 13.417 -7.649 8.022 0 0 Z " fill="#DDE1E6" transform="translate(342,579)"/>
<path d="M0 0 C0.704 0.314 1.407 0.627 2.133 0.95 C6.8 3.046 11.404 5.245 15.941 7.609 C18.339 8.794 20.778 9.846 23.24 10.889 C27.184 12.579 31.089 14.36 35 16.125 C35.891 16.526 36.782 16.928 37.7 17.341 C42.138 19.342 46.573 21.35 51 23.375 C55.312 25.342 59.653 27.236 64 29.125 C69.867 31.677 75.677 34.327 81.464 37.054 C86.363 39.355 91.299 41.564 96.25 43.75 C102.347 46.443 108.405 49.203 114.437 52.04 C119.581 54.452 124.754 56.797 129.938 59.125 C130.774 59.501 131.611 59.877 132.474 60.264 C136.854 62.23 141.237 64.191 145.621 66.148 C146.061 66.345 146.061 66.345 148.288 67.342 C149.95 68.086 151.613 68.828 153.276 69.568 C157.218 71.333 161.11 73.162 164.965 75.109 C171.302 78.307 177.745 81.272 184.188 84.25 C185.398 84.811 186.608 85.372 187.818 85.934 C196.41 89.914 205.01 93.877 213.668 97.711 C219.322 100.216 224.941 102.797 230.562 105.375 C231.633 105.865 232.704 106.355 233.807 106.859 C234.836 107.331 235.865 107.803 236.926 108.289 C237.853 108.714 238.78 109.139 239.736 109.577 C241.927 110.599 244.094 111.656 246.25 112.75 C244.205 104.773 239.26 98.23 233.25 92.75 C242.211 92.27 248.086 94.25 254.805 100.25 C256.25 101.75 256.25 101.75 258.25 104.75 C260.473 105.855 260.473 105.855 263.312 106.938 C268.651 109.074 273.904 111.34 279.125 113.75 C279.481 113.91 279.481 113.91 281.285 114.719 C286.208 117.008 291.724 119.698 294.25 124.75 C294.8 129.761 294.812 133.647 292.5 138.188 C287.99 143.324 284.019 144.548 277.5 145.938 C276.707 146.115 275.914 146.292 275.098 146.475 C273.15 146.909 271.2 147.331 269.25 147.75 C269.142 150.91 269.264 153.73 270.25 156.75 C272.141 158.235 273.96 158.984 276.188 159.875 C281.339 162.06 284.27 166.67 286.516 171.586 C288.198 176.544 288.084 180.687 286.121 185.543 C284.906 187.998 283.632 190.386 282.25 192.75 C282.721 193.114 283.191 193.477 283.676 193.852 C288.923 198.088 291.785 201.481 292.767 208.382 C293.526 215.839 293.78 223.339 294.109 230.824 C294.145 231.636 294.181 232.448 294.218 233.284 C294.407 237.57 294.591 241.856 294.772 246.143 C294.922 249.678 295.082 253.213 295.25 256.748 C295.453 261.037 295.641 265.327 295.817 269.618 C295.887 271.246 295.961 272.873 296.042 274.501 C296.154 276.776 296.245 279.051 296.331 281.327 C296.388 282.619 296.445 283.911 296.504 285.242 C296.164 289.934 294.782 293.284 291.367 296.551 C280.13 302.916 258.503 301.234 246.25 298.445 C242.537 297.154 240.215 295.276 238.132 291.983 C237.005 289.128 237.087 286.966 237.203 283.898 C237.224 283.288 237.224 283.288 237.328 280.201 C237.385 278.842 237.442 277.484 237.5 276.125 C237.554 274.702 237.608 273.279 237.661 271.856 C237.781 268.656 237.908 265.457 238.038 262.257 C238.238 257.207 238.4 252.155 238.557 247.103 C238.7 242.587 238.854 238.072 239.011 233.557 C239.087 231.319 239.158 229.081 239.225 226.843 C239.322 223.664 239.436 220.487 239.555 217.309 C239.58 216.361 239.605 215.413 239.631 214.437 C239.889 208.113 240.575 201.874 244.855 196.875 C246.32 195.833 247.785 194.792 249.25 193.75 C248.133 190.913 246.969 188.178 245.625 185.438 C243.729 180.353 243.191 176.452 245.164 171.418 C247.15 167.556 248.971 164.732 252.562 162.25 C255.25 159.75 255.25 159.75 255.629 157.449 C255.625 155.185 255.514 152.997 255.25 150.75 C254.59 150.42 253.93 150.09 253.25 149.75 C253.91 149.75 254.57 149.75 255.25 149.75 C254.59 146.45 253.93 143.15 253.25 139.75 C241.347 140.048 230.481 143.054 219.015 146.048 C214.417 147.215 209.78 148.15 205.133 149.102 C202.441 149.707 199.872 150.461 197.25 151.312 C192.253 152.891 187.249 153.479 182.062 154.145 C177.143 154.926 172.384 156.127 167.58 157.429 C164.296 158.307 161.687 158.75 158.25 158.75 C158.019 157.893 157.789 157.036 157.551 156.152 C155.61 149.349 153.663 144.266 149.25 138.75 C149.25 138.09 149.25 137.43 149.25 136.75 C148.507 136.484 147.765 136.219 147 135.945 C144.287 134.766 142.502 133.516 140.25 131.625 C134.586 127.098 128.469 123.457 122.25 119.75 C121.269 119.139 120.288 118.528 119.277 117.898 C112.627 113.835 105.906 110.862 98.656 108.094 C95.982 107.039 93.521 105.926 91 104.562 C87.131 102.527 83.108 101.534 78.887 100.457 C76.044 99.695 73.341 98.673 70.594 97.621 C34.951 84.374 -3.135 81.392 -40.812 81.375 C-42.005 81.373 -43.198 81.371 -44.427 81.369 C-66.962 81.373 -89.363 82.51 -111.625 86.125 C-112.947 86.324 -114.268 86.521 -115.59 86.719 C-135.493 89.867 -145.195 95.864 -156.75 111.75 C-157.748 113.085 -158.747 114.419 -159.75 115.75 C-162.336 114.484 -164.919 113.213 -167.5 111.938 C-168.23 111.581 -168.959 111.225 -169.711 110.857 C-173.333 109.063 -176.557 107.248 -179.75 104.75 C-181.191 103.987 -182.651 103.259 -184.125 102.562 C-192.505 98.459 -200.53 93.697 -208.516 88.879 C-214.694 85.162 -220.968 81.619 -227.246 78.074 C-234.699 73.842 -234.699 73.842 -238.211 71.461 C-240.665 69.807 -242.968 68.732 -245.75 67.75 C-235.832 62.415 -224.033 59.941 -213.248 56.916 C-207.825 55.381 -202.53 53.686 -197.262 51.676 C-193.302 50.216 -189.265 49.025 -185.227 47.805 C-181.621 46.711 -178.03 45.575 -174.438 44.438 C-167.614 42.286 -160.749 40.293 -153.875 38.312 C-145.893 36.009 -137.991 33.558 -130.128 30.881 C-123.088 28.496 -115.974 26.405 -108.833 24.35 C-91.445 19.34 -74.119 14.11 -56.875 8.625 C-49.602 6.313 -42.305 4.105 -34.973 1.988 C-32.009 1.13 -29.063 0.225 -26.121 -0.707 C-25.358 -0.944 -24.595 -1.181 -23.809 -1.426 C-22.355 -1.878 -20.904 -2.341 -19.457 -2.815 C-11.937 -5.127 -6.817 -3.096 0 0 Z " fill="#2D3C5B" transform="translate(457.75,144.25)"/>
<path d="M0 0 C0.33 0 0.66 0 1 0 C1.037 0.446 1.037 0.446 1.227 2.703 C2.313 12.371 2.313 12.371 5.938 15.688 C6.948 16.121 7.959 16.554 9 17 C9.99 17.66 10.98 18.32 12 19 C11.707 19.13 11.707 19.13 10.222 19.788 C-9.204 28.489 -29.785 39.065 -44.648 54.738 C-46 56 -46 56 -48 56 C-48.227 56.577 -48.454 57.155 -48.688 57.75 C-50.347 60.595 -52.421 61.937 -55 64 C-57.446 66.571 -59.714 69.287 -62 72 C-62.777 72.901 -63.555 73.802 -64.355 74.73 C-77.635 90.316 -88.252 107.526 -97 126 C-97.168 126.351 -97.168 126.351 -98.016 128.129 C-106.811 146.705 -112.729 165.922 -117 186 C-117.144 186.672 -117.288 187.345 -117.436 188.038 C-120.273 201.565 -122.158 215.308 -124 229 C-124.061 229.452 -124.061 229.452 -124.373 231.739 C-126.071 244.834 -126.203 257.941 -126.25 271.125 C-126.255 271.97 -126.261 272.815 -126.266 273.686 C-126.313 283.339 -126.002 292.513 -124 302 C-123.888 302.635 -123.888 302.635 -123.324 305.848 C-121.803 313.528 -119.532 320.036 -116 327 C-115.403 328.248 -114.808 329.496 -114.215 330.746 C-105.065 349.823 -92.987 366.3 -78.381 381.556 C-77.155 382.838 -75.942 384.133 -74.73 385.43 C-44.981 416.449 -1.802 436.757 39.062 447.938 C39.384 448.026 39.384 448.026 41.012 448.472 C69.356 456.244 97.658 461.844 126.938 464.688 C128.155 464.807 129.373 464.926 130.627 465.049 C134.416 465.4 138.206 465.71 142 466 C143.265 466.098 144.529 466.196 145.833 466.297 C161.801 467.389 177.838 467.187 193.836 467.185 C197.25 467.185 200.664 467.192 204.078 467.206 C233.366 467.322 262.917 467.22 291.938 462.812 C292.657 462.707 293.377 462.601 294.118 462.492 C299.421 461.712 304.712 460.873 310 460 C310.739 459.879 311.478 459.757 312.239 459.632 C366.818 450.591 366.818 450.591 386 441 C379.815 438.338 373.631 435.844 367.25 433.688 C354.557 429.204 342.877 422.926 332 415 C331.462 414.61 330.924 414.22 330.37 413.818 C310.756 399.457 294.895 381.791 284 360 C283.812 357 283.812 357 284 354 C286 352 286 352 288.875 351.562 C292 352 292 352 294.062 353.938 C295.564 356.311 296.88 358.648 298.188 361.125 C303.907 371.642 312.854 380.316 321 389 C321.62 389.697 322.24 390.395 322.879 391.113 C335.517 404.77 353.69 414.666 371 421 C371.799 421.336 372.598 421.673 373.422 422.02 C396.238 431.25 424.248 430.416 447.121 422.023 C450 421 450 421 452 421 C438.334 398.343 417.027 378.3 395 364 C394.413 363.611 393.826 363.221 393.222 362.82 C384.548 357.089 375.337 352.523 366 348 C364.04 347.045 362.081 346.088 360.125 345.125 C359.364 344.756 358.604 344.388 357.82 344.008 C356 343 356 343 354 341 C353.75 338 353.75 338 354 335 C356 333 356 333 359.062 332.625 C363.142 333.014 365.628 333.925 369.254 335.691 C371.923 336.963 374.636 338.067 377.377 339.175 C391.868 345.156 405.084 353.861 417 364 C417.409 364.318 417.409 364.318 419.477 365.926 C432.014 375.745 443.346 387.343 453 400 C457.089 399.457 459.219 397.303 462.188 394.562 C463.068 393.759 463.948 392.956 464.855 392.129 C467 390 467 390 468 388 C468.66 388 469.32 388 470 388 C470.257 387.423 470.513 386.845 470.777 386.25 C472.117 383.785 473.645 382.045 475.562 380 C491.365 362.464 502.744 341.598 512 320 C512.66 320 513.32 320 514 320 C514.044 319.607 514.044 319.607 514.266 317.617 C515.228 312.875 516.941 308.602 518.75 304.125 C519.085 303.265 519.42 302.405 519.766 301.52 C526.071 285.779 526.071 285.779 533 282 C537.17 281.457 541.102 281.86 545.242 282.504 C563.499 284.914 579.629 281.579 594.867 271.012 C597.328 269.086 599.676 267.089 602 265 C602.611 264.482 603.222 263.964 603.852 263.43 C614.345 253.895 621.151 239.606 625.188 226.25 C625.447 225.413 625.707 224.577 625.975 223.715 C627.072 220.16 628.122 216.616 629 213 C591.696 214.442 558.436 219.792 531.281 247.805 C529 250 529 250 526.375 250.5 C523.464 249.887 522.846 249.314 521 247 C520.086 244.753 519.241 242.477 518.438 240.188 C514.225 228.959 507.098 218.852 498 211 C497.214 210.319 496.427 209.639 495.617 208.938 C485.951 200.821 475.742 193.518 464.938 187 C464.318 186.626 463.699 186.252 463.062 185.867 C459.786 183.931 456.543 182.369 453 181 C452.638 204.479 452.546 226.715 466 247 C466.473 247.74 466.946 248.48 467.434 249.242 C475.878 261.538 488.817 267.723 502.705 271.682 C507.558 273.155 510.27 274.462 513 279 C514.255 284.995 511.098 290.054 508 295 C499.338 306.983 486.521 315.197 472 318 C463.628 319.021 457.068 317.212 450.062 312.625 C426.589 293.994 420.317 253.955 413.247 226.586 C402.168 183.836 389.751 139.524 364 103 C363.232 101.87 362.465 100.74 361.699 99.609 C352.376 86.001 340.863 74.737 329.147 63.183 C328.749 62.789 328.749 62.789 326.734 60.797 C326.375 60.443 326.375 60.443 324.554 58.651 C323 57 323 57 323 56 C325.271 55.832 327.542 55.666 329.812 55.5 C331.077 55.407 332.342 55.314 333.645 55.219 C339.759 54.82 339.759 54.82 343.188 57.375 C344.116 58.241 345.044 59.108 346 60 C346 60.66 346 61.32 346 62 C346.66 62 347.32 62 348 62 C348 62.66 348 63.32 348 64 C348.57 64.238 349.14 64.477 349.727 64.723 C365.848 73.781 378.036 98.436 387 114 C387.352 114.601 387.704 115.203 388.067 115.822 C407.787 149.732 417.012 188.692 427.38 226.152 C446.37 294.738 446.37 294.738 461.5 303.438 C470.003 305.351 477.412 302.688 484.754 298.387 C490.434 294.569 495.765 290.705 498 284 C497.171 283.91 496.342 283.82 495.488 283.727 C491.319 282.858 487.96 281.302 484.188 279.375 C483.483 279.018 482.778 278.661 482.052 278.294 C474.363 274.3 467.903 269.357 462 263 C461.419 262.435 460.837 261.871 460.238 261.289 C450.031 250.821 444.148 237.105 441 223 C440.888 222.575 440.888 222.575 440.324 220.426 C437.015 206.087 436.111 181.856 444 169 C446.84 166.475 448.236 165.97 452.035 166.121 C457.216 166.975 461.62 169.589 466.188 172.062 C467.118 172.559 468.048 173.056 469.007 173.567 C475.967 177.33 482.609 181.322 489 186 C489.781 186.571 490.562 187.142 491.367 187.73 C497.212 192.15 502.643 197.007 508 202 C508.764 202.699 509.529 203.397 510.316 204.117 C518.149 211.554 524.347 220.241 529 230 C532.338 228.478 535.08 226.524 538 224.312 C562.075 206.74 589.547 199.97 619 199.75 C619.424 199.745 619.424 199.745 621.569 199.722 C628.323 199.756 635.823 199.957 641.625 203.688 C644.18 207.984 643.177 212.699 642.082 217.383 C641.67 218.967 641.247 220.547 640.812 222.125 C640.586 222.96 640.36 223.796 640.127 224.656 C633.16 249.754 618.88 273.388 595.66 286.559 C594.782 287.034 593.904 287.51 593 288 C592.05 288.527 591.1 289.054 590.121 289.598 C573.244 298.554 554.382 300.03 536 295 C535.88 295.868 535.761 296.736 535.637 297.631 C534.547 303.395 532.121 308.666 529.875 314.062 C529.744 314.378 529.744 314.378 529.083 315.973 C520.244 337.171 510.121 357.79 496 376 C495.112 377.189 494.225 378.379 493.34 379.57 C485.063 390.558 475.829 401.473 465 410 C464.062 412 464.062 412 464 414 C464.309 414.619 464.619 415.237 464.938 415.875 C466.427 418.854 466.462 420.701 466 424 C457.819 435.536 442.221 438.609 429 441 C427.44 441.151 425.877 441.282 424.312 441.375 C418.405 441.863 413.148 444.77 407.816 447.183 C388.421 455.911 367.714 462.286 347 467 C345.529 467.375 344.059 467.753 342.59 468.133 C302.216 478.288 259.505 481.339 218 482 C216.717 482.022 215.434 482.044 214.113 482.066 C132.077 483.335 46.878 474.475 -26.938 436.438 C-27.968 435.907 -28.998 435.377 -30.06 434.831 C-40.208 429.522 -49.721 423.39 -59 416.688 C-59.773 416.129 -60.547 415.571 -61.343 414.996 C-67.646 410.381 -73.333 405.378 -79 400 C-80.266 398.932 -81.537 397.869 -82.812 396.812 C-100.548 381.244 -114.33 361.929 -125 341 C-125.572 339.907 -126.145 338.814 -126.734 337.688 C-153.446 283.713 -139.582 210.185 -123 155 C-122.748 154.154 -122.495 153.308 -122.235 152.437 C-104.443 93.785 -64.637 43.853 -10.688 14.875 C-9.964 14.484 -9.24 14.094 -8.495 13.691 C-3.368 11 -3.368 11 0 11 C0 7.37 0 3.74 0 0 Z " fill="#305873" transform="translate(278,305)"/>
<path d="M0 0 C2 0 2 0 4 1 C5.046 2.638 6.04 4.31 7 6 C8.622 7.769 10.243 9.374 12 11 C12.362 11.347 12.362 11.347 14.195 13.105 C24.804 23.032 34.041 28.393 48.789 28.207 C51.596 28.026 54.037 27.637 56.75 26.938 C65.031 24.867 71.694 27.413 79.41 30.547 C82.574 31.828 85.751 33.022 88.957 34.19 C102.444 39.123 115.225 45.477 128 52 C128.37 52.188 128.37 52.188 130.243 53.141 C148.218 62.315 165.248 72.673 181.938 84 C182.552 84.417 183.167 84.834 183.8 85.264 C196.328 93.782 196.328 93.782 200 97 C200 97.66 200 98.32 200 99 C198.88 99.482 197.76 99.964 196.605 100.461 C195.133 101.099 193.66 101.737 192.188 102.375 C191.819 102.534 191.819 102.534 189.951 103.336 C189.239 103.645 188.527 103.955 187.793 104.273 C187.466 104.415 187.466 104.415 185.809 105.13 C184 106 184 106 181 108 C180.01 108 179.02 108 178 108 C178 108.66 178 109.32 178 110 C177.336 110.111 176.673 110.222 175.989 110.336 C169.14 111.526 162.462 113.075 155.75 114.875 C154.749 115.139 153.747 115.403 152.715 115.675 C148.347 116.828 143.985 117.998 139.633 119.211 C115.204 125.966 90.156 126.323 64.967 126.196 C62.225 126.185 59.482 126.185 56.74 126.186 C53.44 126.185 50.14 126.177 46.84 126.168 C45.622 126.167 44.405 126.166 43.15 126.165 C42.02 126.158 40.89 126.152 39.726 126.145 C38.738 126.141 37.749 126.138 36.731 126.134 C34.052 126.003 31.618 125.557 29 125 C27.111 124.891 25.221 124.784 23.33 124.71 C9.661 124.169 -3.243 121.312 -16.449 117.906 C-19.21 117.202 -21.965 116.54 -24.75 115.938 C-32.327 114.286 -39.861 112.624 -47.078 109.746 C-49.175 108.932 -51.294 108.246 -53.438 107.562 C-57.25 106.309 -60.844 104.77 -64.488 103.098 C-67.435 101.81 -70.426 100.689 -73.438 99.562 C-78.273 97.722 -82.887 95.693 -87.477 93.309 C-89.27 92.378 -91.08 91.478 -92.898 90.598 C-117.609 78.623 -152.493 56.014 -165 31 C-164.67 30.01 -164.34 29.02 -164 28 C-161.685 26.88 -159.466 25.945 -157.062 25.062 C-155.782 24.574 -154.503 24.086 -153.223 23.598 C-152.546 23.345 -151.869 23.093 -151.172 22.833 C-149.658 22.252 -148.153 21.647 -146.656 21.023 C-140.5 18.458 -134.349 16.584 -127.875 15 C-126.842 14.746 -125.81 14.492 -124.746 14.23 C-108.006 10.22 -91.215 7.457 -74 7 C-72.549 6.915 -71.099 6.828 -69.648 6.738 C-57.986 6.17 -57.986 6.17 -53.875 9.812 C-52.902 10.862 -51.942 11.923 -51 13 C-45.231 17.121 -38.802 16.777 -32 16 C-21.5 13.417 -7.649 8.022 0 0 Z " fill="#FEFEFE" transform="translate(342,579)"/>
<path d="M0 0 C1.145 0.545 2.29 1.091 3.469 1.653 C4.68 2.247 5.891 2.842 7.102 3.438 C8.365 4.044 9.629 4.649 10.894 5.252 C13.388 6.441 15.88 7.636 18.369 8.835 C22.496 10.805 26.66 12.672 30.852 14.5 C37.955 17.621 45 20.861 52.039 24.125 C71.584 33.178 91.247 41.971 110.994 50.573 C118.969 54.059 126.852 57.732 134.727 61.438 C135.031 61.581 135.031 61.581 136.57 62.305 C139.005 63.45 141.44 64.597 143.875 65.743 C156.993 71.919 170.143 78.019 183.352 84 C193.729 88.702 204.1 93.417 214.436 98.209 C215.737 98.812 217.039 99.412 218.342 100.012 C220.143 100.84 221.941 101.676 223.738 102.512 C224.754 102.982 225.769 103.452 226.815 103.936 C235.304 108.313 242.63 113.642 246.727 122.438 C247.039 125.438 247.039 125.438 246.727 127.438 C242.65 126.635 238.946 124.914 235.164 123.25 C234.45 122.938 233.735 122.625 232.999 122.303 C228.897 120.483 224.945 118.531 221.039 116.312 C217.376 114.233 213.763 112.631 209.805 111.195 C202.363 108.382 195.284 104.961 188.164 101.438 C180.324 97.569 172.477 93.829 164.377 90.528 C160.856 89.08 157.421 87.496 153.977 85.875 C153.381 85.596 153.381 85.596 150.367 84.184 C147.976 83.05 145.628 81.872 143.273 80.66 C136.566 77.29 129.614 74.418 122.727 71.438 C106.671 64.489 106.671 64.489 100.727 61.426 C95.98 59.08 91.082 57.046 86.227 54.938 C80.041 52.251 73.882 49.574 67.875 46.508 C58.731 41.953 49.335 37.884 40.015 33.705 C38.161 32.874 36.308 32.039 34.455 31.205 C28.761 28.647 23.054 26.138 17.281 23.762 C12.883 21.946 8.644 19.99 4.414 17.812 C2.193 16.672 -0.036 15.547 -2.273 14.438 C-2.848 14.145 -2.848 14.145 -5.754 12.664 C-12.893 10.176 -20.103 13.413 -27.086 15.5 C-27.61 15.655 -27.61 15.655 -30.262 16.438 C-38.969 19.02 -47.649 21.689 -56.323 24.378 C-64.349 26.862 -72.399 29.257 -80.461 31.625 C-88.633 34.026 -96.726 36.548 -104.785 39.305 C-108.711 40.58 -112.665 41.675 -116.648 42.75 C-125.145 45.046 -133.505 47.709 -141.877 50.421 C-148.465 52.551 -155.07 54.602 -161.711 56.562 C-168.832 58.667 -175.876 60.944 -182.908 63.329 C-188.447 65.195 -194.032 66.815 -199.664 68.379 C-204.59 69.824 -209.432 71.491 -214.29 73.147 C-220.608 75.275 -226.989 77.094 -233.437 78.789 C-236.91 79.714 -240.146 80.636 -243.273 82.438 C-242.16 82.974 -241.046 83.51 -239.898 84.062 C-235.882 86.071 -232.074 88.332 -228.242 90.668 C-224.623 92.825 -220.952 94.883 -217.273 96.938 C-212.148 99.805 -207.065 102.72 -202.043 105.766 C-198.217 108.075 -194.372 110.352 -190.523 112.625 C-189.802 113.054 -189.08 113.482 -188.336 113.924 C-184.38 116.257 -180.385 118.387 -176.273 120.438 C-175.099 121.109 -173.93 121.791 -172.766 122.48 C-172.171 122.832 -171.577 123.183 -170.965 123.545 C-169.743 124.271 -168.524 125.003 -167.309 125.74 C-163.92 127.73 -162.31 128.438 -158.273 128.438 C-156.379 126.312 -156.379 126.312 -154.461 123.438 C-151.975 119.861 -149.512 116.337 -146.711 113 C-146.215 112.403 -145.718 111.806 -145.207 111.191 C-135.459 102.349 -120.359 101.313 -107.898 99.312 C-106.94 99.154 -105.981 98.995 -104.993 98.832 C-83.6 95.577 -61.937 95.03 -40.336 95.062 C-39.101 95.062 -37.866 95.062 -36.593 95.062 C-16.218 95.09 3.616 96.182 23.727 99.438 C24.235 99.515 24.235 99.515 26.808 99.907 C46.274 102.916 65.17 108.941 83.727 115.438 C84.728 115.786 85.73 116.134 86.762 116.492 C92.551 118.547 98.175 120.808 103.727 123.438 C104.865 123.969 106.003 124.5 107.176 125.047 C148.479 144.747 148.479 144.747 156.727 162.438 C157.662 166.078 158.267 169.709 158.727 173.438 C159.922 173.172 161.116 172.906 162.348 172.633 C171.91 170.508 171.91 170.508 174.323 169.972 C175.912 169.619 177.5 169.264 179.089 168.909 C183.606 167.899 188.131 166.936 192.664 166 C196.631 165.157 200.496 164.256 204.352 163 C210.235 161.136 216.283 160.087 222.335 158.925 C226.85 158.048 231.255 157.079 235.664 155.75 C241.588 154.014 247.586 153.721 253.727 153.438 C254.919 157.314 255.727 160.354 255.727 164.438 C252.785 166.399 251.14 166.944 247.758 167.664 C246.729 167.887 245.7 168.111 244.639 168.341 C243.513 168.579 242.387 168.817 241.227 169.062 C238.786 169.591 236.346 170.121 233.906 170.652 C233.259 170.793 232.612 170.933 231.945 171.077 C223.732 172.861 215.543 174.746 207.352 176.625 C205.883 176.961 204.415 177.297 202.947 177.633 C180.48 182.778 180.48 182.778 173.719 184.387 C172.69 184.63 171.661 184.874 170.602 185.125 C170.074 185.251 170.074 185.251 167.406 185.887 C164.727 186.438 164.727 186.438 161.727 186.438 C161.871 187.323 162.015 188.209 162.164 189.121 C166.837 220.304 166.837 220.304 160.148 229.641 C156.779 232.14 153.754 231.986 149.727 231.875 C149.034 231.882 148.342 231.889 147.629 231.896 C142.129 231.832 137.189 230.627 131.891 229.219 C126.56 227.902 121.158 227.151 115.727 226.375 C114.661 226.215 113.594 226.054 112.496 225.889 C95.866 223.461 79.466 222.112 62.664 222.25 C60.882 222.257 59.101 222.263 57.319 222.27 C45.758 222.325 34.205 222.565 22.649 222.869 C6.103 223.304 -10.44 223.599 -26.992 223.67 C-29.301 223.681 -31.611 223.698 -33.92 223.721 C-49.292 223.865 -64.092 222.882 -79.273 220.438 C-80.494 220.243 -81.715 220.049 -82.972 219.848 C-85.684 219.39 -88.385 218.896 -91.086 218.375 C-91.948 218.215 -92.809 218.054 -93.697 217.889 C-95.402 217.569 -97.105 217.245 -98.808 216.915 C-100.426 216.602 -102.045 216.297 -103.667 216.003 C-110.733 214.681 -117.575 212.741 -124.461 210.688 C-125.655 210.333 -126.849 209.978 -128.079 209.612 C-136.722 207 -144.97 203.964 -153.273 200.438 C-155.563 199.577 -157.854 198.722 -160.148 197.875 C-175.071 192.123 -175.071 192.123 -178.273 185.438 C-180.81 171.851 -174.017 157.348 -168.156 145.406 C-167.273 143.438 -167.273 143.438 -167.273 141.438 C-167.85 141.112 -168.426 140.786 -169.02 140.45 C-169.428 140.219 -169.428 140.219 -171.496 139.051 C-172.415 138.531 -173.335 138.012 -174.282 137.476 C-176.347 136.309 -178.411 135.142 -180.476 133.975 C-185.711 131.016 -190.947 128.057 -196.184 125.102 C-206.293 119.395 -216.397 113.68 -226.465 107.902 C-230.989 105.307 -235.523 102.735 -240.078 100.195 C-240.555 99.928 -240.555 99.928 -242.966 98.574 C-244.786 97.554 -246.609 96.54 -248.436 95.533 C-259.222 89.46 -259.222 89.46 -261.273 83.562 C-261.273 79.47 -260.284 76.99 -258.273 73.438 C-255.012 71.164 -251.836 69.817 -248.046 68.67 C-247.012 68.354 -245.978 68.037 -244.913 67.711 C-243.789 67.375 -242.666 67.038 -241.508 66.691 C-240.317 66.329 -239.126 65.966 -237.899 65.592 C-235.307 64.804 -232.716 64.018 -230.122 63.237 C-225.954 61.98 -221.788 60.714 -217.623 59.447 C-213.252 58.117 -208.88 56.787 -204.508 55.461 C-194.708 52.487 -184.915 49.491 -175.129 46.473 C-174.801 46.372 -174.801 46.372 -173.141 45.86 C-170.49 45.042 -167.839 44.224 -165.188 43.406 C-137.365 34.822 -109.523 26.301 -81.659 17.847 C-80.951 17.632 -80.242 17.417 -79.512 17.196 C-78.809 16.983 -78.106 16.769 -77.382 16.55 C-76.685 16.338 -75.988 16.127 -75.27 15.909 C-73.879 15.487 -72.489 15.065 -71.098 14.643 C-63.013 12.191 -54.934 9.722 -46.864 7.221 C-42.815 5.967 -38.765 4.721 -34.714 3.475 C-32.908 2.918 -31.104 2.356 -29.301 1.79 C-26.882 1.031 -24.459 0.286 -22.035 -0.457 C-21.355 -0.675 -20.675 -0.892 -19.975 -1.116 C-12.721 -3.307 -6.918 -3.36 0 0 Z M-87.008 109.96 C-90.715 110.502 -94.412 110.829 -98.146 111.121 C-105.929 111.732 -113.522 112.686 -121.148 114.375 C-121.867 114.533 -122.585 114.69 -123.325 114.853 C-134.212 117.419 -139.82 121.805 -145.727 131.32 C-148.339 135.639 -150.827 140.023 -153.273 144.438 C-153.843 145.461 -154.413 146.485 -155 147.539 C-158.208 153.629 -160.726 159.942 -163.148 166.375 C-163.459 167.193 -163.77 168.01 -164.091 168.853 C-166.924 176.612 -166.924 176.612 -166.273 180.438 C-160.738 185.838 -153.538 187.574 -146.308 189.804 C-142.969 190.844 -139.653 191.954 -136.336 193.062 C-135.754 193.255 -135.754 193.255 -132.809 194.227 C-130.411 195.048 -128.034 195.932 -125.68 196.871 C-78.552 214.665 -21.447 214.789 28.121 209.914 C37.343 209.119 46.603 209.239 55.852 209.25 C56.829 209.251 57.806 209.251 58.813 209.252 C81.076 209.289 102.516 210.614 124.388 214.987 C128.66 215.81 132.959 216.425 137.266 217.043 C139.727 217.438 139.727 217.438 141.625 217.988 C144.664 218.638 147.631 218.497 150.727 218.438 C151.806 172.134 151.806 172.134 140.727 160.438 C122.26 144.993 98.943 133.416 76.105 126.202 C73.724 125.437 71.366 124.622 69.008 123.789 C60.909 120.949 53.018 118.648 44.547 117.176 C41.353 116.559 38.272 115.812 35.129 114.988 C28.528 113.313 21.902 112.267 15.164 111.312 C14.023 111.144 12.881 110.975 11.705 110.801 C-0.331 109.055 -12.093 108.276 -24.258 108.27 C-25.686 108.266 -27.114 108.263 -28.542 108.259 C-31.521 108.253 -34.499 108.252 -37.478 108.252 C-41.25 108.252 -45.023 108.239 -48.795 108.221 C-51.742 108.21 -54.688 108.208 -57.635 108.209 C-59.023 108.208 -60.412 108.203 -61.801 108.195 C-70.356 108.152 -78.564 108.697 -87.008 109.96 Z " fill="#171E27" transform="translate(457.2734375,129.5625)"/>
<path d="M0 0 C8.961 -0.48 14.836 1.5 21.555 7.5 C23 9 23 9 25 12 C27.223 13.105 27.223 13.105 30.062 14.188 C35.401 16.324 40.654 18.59 45.875 21 C46.588 21.32 47.301 21.64 48.035 21.969 C52.958 24.258 58.474 26.948 61 32 C61.55 37.011 61.562 40.897 59.25 45.438 C54.74 50.574 50.769 51.798 44.25 53.188 C43.457 53.365 42.664 53.542 41.848 53.725 C39.9 54.159 37.95 54.581 36 55 C35.892 58.16 36.014 60.98 37 64 C38.891 65.485 40.71 66.234 42.938 67.125 C48.089 69.31 51.02 73.92 53.266 78.836 C54.948 83.794 54.834 87.937 52.871 92.793 C51.656 95.248 50.382 97.636 49 100 C49.471 100.364 49.941 100.727 50.426 101.102 C55.673 105.338 58.535 108.731 59.517 115.632 C60.276 123.089 60.53 130.589 60.859 138.074 C60.895 138.886 60.931 139.698 60.968 140.534 C61.157 144.82 61.341 149.106 61.522 153.393 C61.672 156.928 61.832 160.463 62 163.998 C62.203 168.287 62.391 172.577 62.567 176.868 C62.637 178.496 62.711 180.123 62.792 181.751 C62.904 184.026 62.995 186.301 63.081 188.577 C63.138 189.869 63.195 191.161 63.254 192.492 C62.914 197.184 61.532 200.534 58.117 203.801 C46.88 210.166 25.253 208.484 13 205.695 C9.287 204.404 6.965 202.526 4.882 199.233 C3.755 196.378 3.837 194.216 3.953 191.148 C3.994 189.928 4.035 188.708 4.078 187.451 C4.135 186.092 4.192 184.734 4.25 183.375 C4.304 181.952 4.358 180.529 4.411 179.106 C4.531 175.906 4.658 172.707 4.788 169.507 C4.988 164.457 5.15 159.405 5.307 154.353 C5.45 149.837 5.604 145.322 5.761 140.807 C5.837 138.569 5.908 136.331 5.975 134.093 C6.072 130.914 6.186 127.737 6.305 124.559 C6.317 124.085 6.317 124.085 6.381 121.687 C6.639 115.363 7.325 109.124 11.605 104.125 C13.07 103.083 14.535 102.042 16 101 C14.883 98.163 13.719 95.428 12.375 92.688 C10.479 87.603 9.941 83.702 11.914 78.668 C13.9 74.806 15.721 71.982 19.312 69.5 C22 67 22 67 22.379 64.699 C22.375 62.435 22.264 60.247 22 58 C21.34 57.67 20.68 57.34 20 57 C20.66 57 21.32 57 22 57 C20.777 50.79 19.541 44.582 18.281 38.379 C17.573 34.892 16.882 31.409 16.281 27.902 C14.273 17.239 9.021 7.315 0 1 C0 0.67 0 0.34 0 0 Z " fill="#BD9242" transform="translate(691,237)"/>
<path d="M0 0 C6.742 1.421 11.884 4.722 17.625 8.438 C18.6 9.064 19.576 9.691 20.581 10.337 C28.279 15.363 35.219 20.816 42 27 C42.887 27.745 43.774 28.49 44.688 29.258 C54.086 37.252 61.025 46.729 66 58 C66.38 58.853 66.761 59.707 67.152 60.586 C67.845 62.148 68.53 63.714 69.203 65.285 C70 67 70 67 71 68 C74.065 68.161 76.055 67.982 79 67 C79.675 65.671 80.34 64.337 81 63 C87.154 56.484 94.251 51.43 102 47 C103.013 46.413 104.026 45.827 105.07 45.223 C127.236 33.249 151.293 31.497 176 32 C174.98 41.68 172.982 50.783 165.625 57.688 C155.987 65.487 145.612 72.543 134 77 C133.379 77.242 132.758 77.484 132.118 77.733 C123.555 81.037 115.179 83.585 106.125 85.215 C100.956 86.158 95.858 87.4 90.75 88.625 C89.832 88.844 88.914 89.062 87.968 89.287 C84.595 90.098 81.292 90.903 78 92 C72.393 92.647 69.631 91.556 65.285 88.289 C64 87 64 87 64 85 C63.34 85 62.68 85 62 85 C60.625 83.566 60.625 83.566 59 81.562 C52.555 74.026 45.45 68.044 37 62.883 C28.617 57.622 20.171 51.829 13 45 C13 44.34 13 43.68 13 43 C12.718 42.907 12.718 42.907 11.293 42.438 C7.963 40.35 6.314 37.284 4.312 34 C3.91 33.358 3.507 32.716 3.092 32.055 C-2.996 22.305 -1.471 11.162 0 0 Z " fill="#7FB1D0" transform="translate(731,486)"/>
<path d="M0 0 C3.323 3.987 6.225 8.2 9.121 12.5 C13.003 17.665 17.686 21.442 22.875 25.188 C23.527 25.664 24.179 26.14 24.851 26.631 C28.764 29.465 32.743 32.162 36.802 34.782 C44.636 39.843 51.342 45.457 58 52 C58.77 52.724 59.539 53.449 60.332 54.195 C62 56 62 56 62 58 C62.66 58 63.32 58 64 58 C65.688 59.645 67.354 61.313 69 63 C74.13 65.565 80.189 63.647 85.438 62.25 C86.844 61.883 88.25 61.515 89.656 61.148 C90.372 60.959 91.087 60.769 91.824 60.573 C95.354 59.643 98.896 58.76 102.438 57.875 C103.674 57.563 104.91 57.251 106.184 56.93 C108.932 56.26 111.673 55.636 114.438 55.043 C131.765 51.212 147.609 44.219 161.082 32.531 C163 31 163 31 166 30 C166.33 29.01 166.66 28.02 167 27 C167.99 26.67 168.98 26.34 170 26 C167.203 36.351 160.972 45.044 154 53 C153.407 53.688 152.814 54.377 152.203 55.086 C142.476 65.603 126.626 75.416 112.036 76.091 C109.731 76.135 107.43 76.136 105.125 76.125 C104.736 76.127 104.736 76.127 102.77 76.137 C98.084 76.129 93.638 75.744 89 75 C87.484 74.83 85.962 74.698 84.438 74.625 C84.086 74.601 84.086 74.601 82.309 74.477 C78.749 75.284 76.415 77.382 74 80 C72.094 83.172 72.094 83.172 70.5 86.75 C70.214 87.388 69.927 88.026 69.633 88.684 C66.303 96.284 63.628 104.135 61 112 C60.34 112 59.68 112 59 112 C58.907 112.674 58.814 113.348 58.719 114.043 C57.819 117.744 56.229 120.945 54.5 124.312 C54.145 125.01 53.789 125.708 53.423 126.427 C44.541 143.723 34.513 159.089 22 174 C21.471 174.664 20.943 175.328 20.398 176.012 C19.31 177.377 18.163 178.697 17 180 C16.34 180 15.68 180 15 180 C14.771 180.561 14.541 181.121 14.305 181.699 C12.645 184.626 10.6 186.539 8.125 188.812 C7.693 189.218 7.693 189.218 5.508 191.27 C3 193 3 193 1.019 192.793 C-1.313 191.877 -2.235 190.971 -3.812 189.043 C-4.325 188.43 -4.838 187.817 -5.366 187.186 C-5.906 186.526 -6.445 185.867 -7 185.188 C-12.98 178.063 -19.319 171.464 -26 165 C-22.613 163.182 -19.13 161.942 -15.5 160.688 C11.14 151.29 33.591 137.636 50.188 114.371 C52 112 52 112 54 111 C54.625 108.938 54.625 108.938 55 107 C55.66 107 56.32 107 57 107 C57.062 106.526 57.062 106.526 57.375 104.125 C58 101 58 101 60 99 C60.23 96.723 60.23 96.723 60.188 94.062 C60.181 93.187 60.175 92.312 60.168 91.41 C60 89 60 89 59 86 C58.505 85.67 58.505 85.67 56 84 C56.495 82.969 56.99 81.938 57.5 80.875 C58.955 77.405 59.66 74.795 59 71 C55.37 66.537 51.861 64.99 46.438 63.625 C29.105 58.716 17.426 48.474 8.305 33.152 C2.831 22.934 -0.819 11.673 0 0 Z " fill="#5E8DAF" transform="translate(731,513)"/>
<path d="M0 0 C0.661 0.227 1.322 0.453 2.003 0.687 C4.411 1.53 6.799 2.416 9.188 3.312 C9.987 3.608 10.787 3.904 11.611 4.209 C15.704 5.731 19.761 7.31 23.797 8.977 C38.694 14.963 54.673 19.396 70.575 21.649 C73.553 22.08 76.524 22.552 79.496 23.023 C84.007 23.735 88.517 24.443 93.031 25.133 C93.965 25.276 94.899 25.419 95.861 25.567 C103.682 26.646 111.28 27.149 119.18 27.133 C120.249 27.134 121.317 27.135 122.419 27.137 C125.904 27.139 129.39 27.132 132.875 27.125 C134.075 27.124 135.276 27.123 136.513 27.122 C152.453 27.109 168.378 26.924 184.312 26.5 C291.211 23.76 291.211 23.76 311.215 38.648 C315.912 43.356 315.912 43.356 316.375 46.75 C316.251 47.493 316.128 48.235 316 49 C316.33 49.99 316.66 50.98 317 52 C317.66 52 318.32 52 319 52 C325.875 59.253 331.438 67.729 337 76 C336.67 76.66 336.34 77.32 336 78 C335.406 77.564 334.811 77.129 334.199 76.68 C321.997 67.913 308.707 61.994 295 56 C294.405 55.739 294.405 55.739 291.395 54.418 C286.219 52.202 281.072 50.279 275.645 48.773 C273.422 48.124 271.263 47.397 269.078 46.637 C262.794 44.53 256.374 42.999 249.938 41.438 C248.729 41.134 247.521 40.83 246.275 40.518 C228.629 36.225 211.642 35.602 193.562 35.625 C192.378 35.624 191.194 35.622 189.973 35.621 C174.323 35.623 158.926 36.249 143.375 38 C102.499 42.508 64.557 38.658 25 27 C23.125 26.458 21.25 25.916 19.375 25.375 C15.89 24.347 12.514 23.084 9.119 21.798 C7.108 21.041 5.091 20.302 3.07 19.57 C-3.801 17.061 -10.456 14.51 -16.887 10.98 C-19.24 9.889 -21.448 9.416 -24 9 C-20.503 6.117 -16.632 4.183 -12.562 2.25 C-11.907 1.921 -11.252 1.593 -10.576 1.254 C-6.551 -0.66 -4.225 -1.478 0 0 Z " fill="#5E8AAC" transform="translate(293,325)"/>
<path d="M0 0 C0.704 0.314 1.407 0.627 2.133 0.95 C6.8 3.046 11.404 5.245 15.941 7.609 C18.339 8.794 20.778 9.846 23.24 10.889 C27.184 12.579 31.089 14.36 35 16.125 C35.891 16.526 36.782 16.928 37.7 17.341 C42.138 19.342 46.573 21.35 51 23.375 C55.312 25.342 59.653 27.236 64 29.125 C69.867 31.677 75.677 34.327 81.464 37.054 C86.363 39.355 91.299 41.564 96.25 43.75 C102.347 46.443 108.405 49.203 114.437 52.04 C119.581 54.452 124.754 56.797 129.938 59.125 C130.774 59.501 131.611 59.877 132.474 60.264 C136.854 62.23 141.237 64.191 145.621 66.148 C146.061 66.345 146.061 66.345 148.288 67.342 C149.95 68.086 151.613 68.828 153.276 69.568 C157.218 71.333 161.11 73.162 164.965 75.109 C171.302 78.307 177.745 81.272 184.188 84.25 C185.398 84.811 186.608 85.372 187.818 85.934 C196.41 89.914 205.01 93.877 213.668 97.711 C219.322 100.216 224.941 102.797 230.562 105.375 C231.633 105.865 232.704 106.355 233.807 106.859 C234.836 107.331 235.865 107.803 236.926 108.289 C237.853 108.714 238.78 109.139 239.736 109.577 C241.927 110.599 244.094 111.656 246.25 112.75 C246.58 111.76 246.91 110.77 247.25 109.75 C249.282 114.084 249.771 118.036 250.25 122.75 C243.735 120.697 237.457 118.27 231.188 115.562 C230.274 115.17 229.36 114.777 228.418 114.372 C221.442 111.34 214.64 108.039 207.867 104.582 C198.921 100.019 189.687 96.044 180.507 91.979 C173.768 88.991 167.057 85.946 160.349 82.888 C154.756 80.34 149.159 77.804 143.555 75.281 C119.546 64.469 119.546 64.469 108.972 59.44 C103.462 56.828 97.898 54.348 92.32 51.885 C83.547 48.008 74.823 44.024 66.095 40.045 C63.227 38.74 60.358 37.438 57.488 36.137 C29.749 23.56 29.749 23.56 21.438 19.312 C16.013 16.559 10.443 14.142 4.869 11.711 C-0.078 9.542 -4.853 7.211 -9.512 4.465 C-15.752 2.472 -23.45 6.06 -29.406 7.953 C-29.916 8.113 -29.916 8.113 -32.497 8.922 C-35.75 9.943 -39 10.971 -42.25 12 C-44.403 12.676 -46.557 13.352 -48.711 14.027 C-58.756 17.184 -68.783 20.376 -78.75 23.77 C-82.494 24.993 -86.27 26.02 -90.09 26.977 C-92.902 27.794 -95.608 28.814 -98.343 29.858 C-103.414 31.737 -108.557 33.416 -113.688 35.125 C-114.887 35.525 -116.087 35.925 -117.323 36.337 C-125.147 38.928 -132.993 41.371 -140.914 43.641 C-146.899 45.371 -152.834 47.255 -158.775 49.129 C-160.74 49.747 -162.708 50.357 -164.676 50.965 C-171.666 53.127 -178.626 55.358 -185.562 57.688 C-193.387 60.315 -201.241 62.836 -209.121 65.293 C-212.166 66.244 -215.198 67.226 -218.223 68.238 C-218.578 68.355 -218.578 68.355 -220.378 68.947 C-222.3 69.58 -224.219 70.223 -226.137 70.867 C-231.777 72.245 -237.019 72.739 -242.25 69.75 C-242.585 69.564 -242.585 69.564 -244.281 68.625 C-244.766 68.336 -245.251 68.048 -245.75 67.75 C-235.832 62.415 -224.033 59.941 -213.248 56.916 C-207.825 55.381 -202.53 53.686 -197.262 51.676 C-193.302 50.216 -189.265 49.025 -185.227 47.805 C-181.621 46.711 -178.03 45.575 -174.438 44.438 C-167.614 42.286 -160.749 40.293 -153.875 38.312 C-145.893 36.009 -137.991 33.558 -130.128 30.881 C-123.088 28.496 -115.974 26.405 -108.833 24.35 C-91.445 19.34 -74.119 14.11 -56.875 8.625 C-49.602 6.313 -42.305 4.105 -34.973 1.988 C-32.009 1.13 -29.063 0.225 -26.121 -0.707 C-25.358 -0.944 -24.595 -1.181 -23.809 -1.426 C-22.355 -1.878 -20.904 -2.341 -19.457 -2.815 C-11.937 -5.127 -6.817 -3.096 0 0 Z " fill="#535C7B" transform="translate(457.75,144.25)"/>
<path d="M0 0 C8.226 5.931 12.818 12.453 16 22 C17.174 32.72 14.578 41.879 7.875 50.375 C1.869 56.683 -5.967 60.531 -14.613 61.203 C-24.8 61.38 -31.348 58.712 -39 52 C-45.686 45.159 -49.284 38.16 -49.625 28.562 C-49.282 18.849 -45.863 10.863 -39 4 C-28.084 -5.361 -12.611 -7.682 0 0 Z " fill="#10161C" transform="translate(502,549)"/>
<path d="M0 0 C4.09 2.009 6.573 4.183 9 8 C9.43 10.343 9.43 10.343 9.508 12.961 C9.545 13.946 9.581 14.932 9.619 15.947 C9.644 17.007 9.669 18.068 9.695 19.16 C9.733 20.26 9.771 21.361 9.81 22.494 C9.928 26.017 10.027 29.539 10.125 33.062 C10.234 36.56 10.346 40.058 10.462 43.556 C10.532 45.731 10.598 47.905 10.659 50.081 C10.834 55.926 11.188 61.711 11.787 67.529 C12.137 71.582 12.107 75.623 12.062 79.688 C12.058 80.496 12.053 81.305 12.049 82.139 C12.037 84.092 12.019 86.046 12 88 C5.946 88.877 0.051 89.183 -6.062 89.188 C-6.922 89.2 -7.781 89.212 -8.666 89.225 C-13.843 89.236 -18.098 88.683 -23 87 C-23.092 74.15 -22.69 61.31 -22.241 48.47 C-22.101 44.448 -21.976 40.427 -21.885 36.404 C-21.796 32.48 -21.669 28.558 -21.516 24.636 C-21.464 23.152 -21.426 21.667 -21.401 20.182 C-21.2 8.688 -21.2 8.688 -18.238 4.522 C-12.492 -0.695 -7.57 -1.352 0 0 Z " fill="#F7BE5B" transform="translate(730,343)"/>
<path d="M0 0 C8.961 -0.48 14.836 1.5 21.555 7.5 C23 9 23 9 25 12 C27.223 13.105 27.223 13.105 30.062 14.188 C35.401 16.324 40.654 18.59 45.875 21 C46.588 21.32 47.301 21.64 48.035 21.969 C52.958 24.258 58.474 26.948 61 32 C61.55 37.011 61.562 40.897 59.25 45.438 C54.74 50.574 50.769 51.798 44.25 53.188 C43.457 53.365 42.664 53.542 41.848 53.725 C39.9 54.159 37.95 54.581 36 55 C35.892 58.16 36.014 60.98 37 64 C38.892 65.485 40.702 66.231 42.934 67.113 C47.565 69.101 51.111 73.426 53 78 C53 81.63 53 85.26 53 89 C39.14 89 25.28 89 11 89 C11 81.072 11.487 78.03 16 72 C17.668 70.637 17.668 70.637 19.312 69.5 C22 67 22 67 22.379 64.699 C22.375 62.435 22.264 60.247 22 58 C21.34 57.67 20.68 57.34 20 57 C20.66 57 21.32 57 22 57 C20.777 50.79 19.541 44.582 18.281 38.379 C17.573 34.892 16.882 31.409 16.281 27.902 C14.273 17.239 9.021 7.315 0 1 C0 0.67 0 0.34 0 0 Z " fill="#BB8F42" transform="translate(691,237)"/>
<path d="M0 0 C3.147 1.398 5.311 3.044 7.758 5.457 C8.461 6.15 9.163 6.843 9.887 7.557 C17.593 15.323 24.769 22.979 31 32 C31.272 32.385 31.272 32.385 32.646 34.331 C40.685 45.799 47.616 57.587 53.688 70.188 C53.98 70.79 54.272 71.393 54.573 72.014 C57.926 78.981 60.804 85.942 63.143 93.312 C64.297 96.931 65.642 100.452 67 104 C73.539 121.419 78.239 139.309 82.985 157.285 C103.26 234.002 103.26 234.002 121.625 248.125 C130.475 253.041 138.858 253.085 148.438 250.438 C154.998 248.256 160.426 245.047 166 241 C166.596 240.577 167.191 240.154 167.805 239.719 C172.028 236.48 174.979 232.318 178 228 C179.65 228.33 181.3 228.66 183 229 C184.262 232.786 184.843 236.094 184 240 C179.919 246.481 172.631 249.707 166 253 C165.546 253.233 165.546 253.233 163.246 254.414 C151.162 260.573 137.643 263.817 124.125 259.938 C109.983 254.196 102.848 240.39 96.896 227.179 C94.863 222.234 93.472 217.099 92.105 211.938 C91.38 209.221 90.516 206.623 89.504 204 C87.984 200.059 86.838 196.078 85.75 192 C83.547 183.915 81.234 175.865 78.873 167.825 C77.334 162.583 75.807 157.339 74.312 152.085 C73.529 149.336 72.741 146.588 71.954 143.839 C71.575 142.513 71.198 141.186 70.824 139.858 C68.332 131.029 65.395 122.519 62 114 C61.453 112.553 60.911 111.104 60.375 109.652 C52.542 88.49 43.342 67.971 31.992 48.449 C30.93 46.61 29.874 44.767 28.867 42.897 C25.846 37.296 22.442 32.135 18.688 27 C18.404 26.608 18.404 26.608 16.968 24.627 C13.327 19.656 9.568 14.974 5.293 10.531 C4 9 4 9 4 7 C3.34 7 2.68 7 2 7 C0 4 0 4 0 0 Z " fill="#A3C7DE" transform="translate(608,370)"/>
<path d="M0 0 C6.423 4.306 10.42 10.159 11.973 17.781 C12.736 25.26 10.286 33.108 5.785 39.156 C-0.995 45.484 -8.122 48.2 -17.305 48.051 C-25.206 47.269 -30.565 44.033 -35.555 37.977 C-40.66 30.365 -40.897 23.779 -40.027 14.781 C-39.146 11.695 -37.918 9.36 -36.027 6.781 C-35.829 6.5 -35.829 6.5 -34.824 5.078 C-26.168 -6.208 -11.574 -6.958 0 0 Z " fill="#11171D" transform="translate(230.02734375,520.21875)"/>
<path d="M0 0 C2.287 2.955 4.287 6.009 6.25 9.188 C11.984 18.232 18.708 26.174 26 34 C26.664 34.73 27.328 35.459 28.012 36.211 C48.449 57.777 75.28 69.104 103 78 C99.448 81.191 95.457 82.252 90.953 83.48 C90.182 83.698 89.411 83.916 88.616 84.14 C86.163 84.831 83.707 85.509 81.25 86.188 C79.582 86.655 77.914 87.123 76.246 87.592 C72.167 88.737 68.084 89.871 64 91 C63.552 90.23 63.104 89.46 62.642 88.666 C60.741 85.58 58.539 83.147 56.062 80.5 C55.074 79.439 54.086 78.378 53.098 77.316 C52.587 76.771 52.077 76.226 51.551 75.665 C50.022 74.024 48.507 72.372 46.996 70.715 C38.725 61.655 30.347 52.705 21.008 44.727 C18.738 42.775 16.527 40.765 14.312 38.75 C3.561 29.064 -7.663 19.985 -19 11 C-16.293 8.167 -13.46 6.349 -10.062 4.375 C-9.022 3.764 -7.982 3.153 -6.91 2.523 C-4.518 1.271 -2.632 0.469 0 0 Z " fill="#5F8EB0" transform="translate(563,667)"/>
<path d="M0 0 C5.431 3.168 9.238 8.115 11.07 14.145 C12.42 21.195 10.794 26.878 7.438 33.062 C3.185 38.894 -2.712 42.87 -9.562 45.062 C-16.336 45.98 -23.672 45.888 -29.562 42.062 C-34.688 37.373 -38.135 32.826 -38.934 25.793 C-39.077 18.158 -38.885 12.782 -33.562 7.062 C-24.396 -2.234 -12.448 -5.486 0 0 Z " fill="#C4DAE7" transform="translate(273.5625,360.9375)"/>
<path d="M0 0 C2.349 0.954 3.377 1.867 5 3.812 C5.738 6.047 5.738 6.047 6.312 8.562 C7.922 14.357 10.692 18.663 15.785 21.973 C22.68 24.587 31.196 23.526 37.938 20.938 C45.89 17.213 54.765 12.048 61 5.812 C64.044 5.067 65.119 4.829 68 5.812 C71.403 8.813 74.166 12.281 77 15.812 C84.301 24.502 92.724 34.331 104.543 36.219 C112.111 36.487 117.208 34.739 123 29.812 C125.199 27.22 127.202 24.6 129.113 21.789 C131 19.812 131 19.812 133.605 19.398 C136 19.812 136 19.812 138 21.812 C138.715 25.068 138.429 27.075 136.75 29.961 C131.15 37.557 123.576 44.979 114 46.812 C100.467 48.22 91.276 44.438 80.75 36.133 C73.559 30.066 73.559 30.066 71 26.812 C71 26.153 71 25.492 71 24.812 C70.505 24.648 70.505 24.648 68 23.812 C66.312 21.25 66.312 21.25 65 18.812 C61.791 19.424 59.803 20.508 57.188 22.438 C53.086 25.253 48.87 27.462 44.375 29.562 C43.754 29.856 43.133 30.149 42.493 30.452 C33.717 34.473 23.889 37.136 14.406 33.938 C5.189 29.14 0.032 22.207 -4 12.812 C-4.379 11.953 -4.758 11.093 -5.148 10.207 C-6.278 7.032 -5.927 5.021 -5 1.812 C-2 -0.188 -2 -0.188 0 0 Z " fill="#161F28" transform="translate(280,561.1875)"/>
<path d="M0 0 C0.33 0.165 0.33 0.165 2 1 C2 1.66 2 2.32 2 3 C0.86 3.535 -0.279 4.07 -1.453 4.621 C-6.214 7.003 -10.445 9.947 -14.75 13.062 C-15.491 13.592 -16.232 14.121 -16.996 14.666 C-22.494 18.599 -22.494 18.599 -25.114 20.674 C-27 22 -27 22 -29 22 C-29 22.66 -29 23.32 -29 24 C-32.462 27 -32.462 27 -35 27 C-35.206 27.557 -35.412 28.114 -35.625 28.688 C-37.149 31.25 -38.99 32.695 -41.301 34.535 C-50.133 42.149 -57.14 52.627 -64 62 C-64.374 62.505 -64.748 63.011 -65.134 63.532 C-70.712 71.083 -75.764 78.596 -80 87 C-80.619 88.19 -81.239 89.381 -81.859 90.57 C-87.139 100.803 -91.768 111.292 -96 122 C-96.159 122.396 -96.159 122.396 -96.965 124.401 C-100.247 132.941 -102.367 141.745 -104.5 150.625 C-104.698 151.444 -104.895 152.262 -105.099 153.106 C-110.897 177.233 -113.864 201.32 -116 226 C-118 225 -118 225 -118.852 222.48 C-119.107 221.394 -119.362 220.307 -119.625 219.188 C-119.755 218.658 -119.755 218.658 -120.414 215.98 C-122.274 205.519 -120.518 195.045 -118.812 184.688 C-118.701 183.991 -118.589 183.294 -118.473 182.576 C-116.581 170.806 -114.372 159.13 -111.603 147.532 C-111.211 145.886 -110.828 144.239 -110.456 142.589 C-105.89 122.395 -97.727 103.227 -88 85 C-87.49 84.013 -86.979 83.025 -86.453 82.008 C-78.615 67.132 -68.43 53.526 -57.008 41.219 C-55.591 39.653 -54.235 38.032 -52.926 36.375 C-50.581 33.483 -47.881 31.352 -45 29 C-44.237 28.237 -43.474 27.474 -42.688 26.688 C-35.732 19.732 -28.374 13.973 -20.125 8.625 C-19.189 8.01 -18.253 7.395 -17.289 6.762 C-15.57 5.633 -13.849 4.507 -12.125 3.385 C-7.601 0.437 -5.477 -0.299 0 0 Z " fill="#A3C7DE" transform="translate(274,334)"/>
<path d="M0 0 C7.41 1.982 14.196 4.732 21.125 8 C27.353 10.913 33.536 13.654 40 16 C42.047 16.821 44.089 17.653 46.125 18.5 C46.611 18.701 46.611 18.701 49.07 19.719 C51.003 20.564 52.909 21.473 54.781 22.445 C61.409 25.647 68.505 27.777 75.468 30.133 C77.698 30.897 79.914 31.69 82.129 32.496 C92.916 36.294 103.641 37.293 115 38 C115 38.33 115 38.66 115 39 C78.69 44.148 46.714 37.623 16.74 15.696 C4.096 6.144 4.096 6.144 0 0 Z " fill="#608FB0" transform="translate(598,693)"/>
<path d="M0 0 C6.501 0.866 11.646 3.416 17.5 6.25 C18.52 6.728 19.539 7.206 20.59 7.699 C33.43 13.861 33.43 13.861 36 19 C36.55 24.011 36.562 27.897 34.25 32.438 C30.561 36.639 27.574 38.377 22.125 39.688 C21.621 39.813 21.621 39.813 19.07 40.449 C15.977 41.004 13.135 41.098 10 41 C8.478 34.71 7.025 28.474 6.125 22.062 C5.189 16.02 3.194 10.519 1.023 4.836 C0 2 0 2 0 0 Z " fill="#1C232A" transform="translate(716,250)"/>
<path d="M0 0 C1.869 3.327 2.712 6.564 3.551 10.277 C3.694 10.896 3.694 10.896 4.42 14.025 C5.009 16.597 5.59 19.17 6.17 21.744 C8.748 32.819 12.166 43.284 17.812 53.188 C21 58.808 21 58.808 21 61 C21.66 61 22.32 61 23 61 C21.864 64.409 21.46 64.607 18.473 66.262 C17.763 66.658 17.053 67.054 16.322 67.463 C15.577 67.867 14.831 68.271 14.062 68.688 C13.692 68.895 13.692 68.895 11.814 69.947 C6.285 73 6.285 73 4 73 C3.835 73.33 3.835 73.33 3 75 C2.347 72.356 1.703 69.71 1.062 67.062 C0.88 66.327 0.698 65.592 0.51 64.834 C0.333 64.096 0.155 63.358 -0.027 62.598 C-0.19 61.933 -0.352 61.268 -0.519 60.582 C-1.799 53.71 -2.151 46.884 -2.133 39.906 C-2.134 39.075 -2.135 38.243 -2.136 37.386 C-2.136 35.642 -2.135 33.897 -2.13 32.153 C-2.125 29.507 -2.13 26.861 -2.137 24.215 C-2.136 22.508 -2.135 20.801 -2.133 19.094 C-2.135 18.315 -2.137 17.537 -2.139 16.735 C-2.077 2.077 -2.077 2.077 0 0 Z " fill="#5D8DAF" transform="translate(153,546)"/>
<path d="M0 0 C7.758 -0.416 13.545 0.832 19.75 5.688 C23.335 9.013 25.233 12.481 27 17 C27.186 17.467 27.186 17.467 28.129 19.828 C30.544 26.391 31.556 32.021 31 39 C29.057 37.927 27.12 36.841 25.188 35.75 C24.109 35.147 23.03 34.543 21.918 33.922 C19.149 32.098 17.636 30.846 16 28 C15.773 26.701 15.546 25.401 15.312 24.062 C13.525 15.004 7.504 6.253 0 1 C0 0.67 0 0.34 0 0 Z " fill="#F3BD61" transform="translate(691,237)"/>
<path d="M0 0 C0.443 0.001 0.443 0.001 2.682 0.004 C5.514 0.01 8.347 0.022 11.18 0.035 C13.098 0.04 15.016 0.045 16.934 0.049 C21.641 0.06 26.348 0.077 31.055 0.098 C31.055 3.068 31.055 6.038 31.055 9.098 C17.195 9.098 3.335 9.098 -10.945 9.098 C-10.945 6.458 -10.945 3.818 -10.945 1.098 C-7.561 -0.594 -3.721 -0.022 0 0 Z " fill="#85351A" transform="translate(712.9453125,316.90234375)"/>
<path d="M0 0 C2.31 0 4.62 0 7 0 C5.693 4.174 4.118 8.015 2.172 11.93 C1.622 13.048 1.071 14.167 0.505 15.319 C-0.074 16.493 -0.653 17.666 -1.25 18.875 C-6.078 28.733 -10.506 38.582 -14 49 C-15.65 48.34 -17.3 47.68 -19 47 C-18.471 41.502 -17.448 36.664 -15.438 31.5 C-15.178 30.821 -14.918 30.141 -14.651 29.442 C-10.633 19.209 -5.503 9.501 0 0 Z " fill="#515A79" transform="translate(310,263)"/>
<path d="M0 0 C1.938 1.562 1.938 1.562 3 4 C2.935 7.716 2.799 10.047 0.375 12.938 C-2.932 14.417 -5.42 14.391 -9 14 C-10.938 12.938 -10.938 12.938 -12 11 C-12.39 6.633 -12.463 4.695 -10 1 C-6.743 -0.279 -3.455 -0.368 0 0 Z " fill="#C3D9E7" transform="translate(299,353)"/>
<path d="M0 0 C1.938 0.062 1.938 0.062 4 1 C5.046 2.638 6.04 4.31 7 6 C8.647 7.686 10.311 9.356 12 11 C12.33 11.66 12.66 12.32 13 13 C12.414 12.928 12.414 12.928 9.449 12.562 C0.937 11.546 -7.409 10.659 -16 11 C-12.277 8.1 -8.313 5.776 -4.242 3.402 C-2 2 -2 2 0 0 Z " fill="#8AB4D0" transform="translate(342,579)"/>
<path d="M0 0 C2.693 2.038 3.833 3.166 4.5 6.5 C3.819 9.905 2.852 11.025 0 13 C-3.562 13.5 -3.562 13.5 -7 13 C-9 11.438 -9 11.438 -10 9 C-9.933 5.187 -9.797 2.911 -7.25 0 C-4.294 -1.314 -3.016 -1.131 0 0 Z " fill="#F6F5F5" transform="translate(474,553)"/>
<path d="M0 0 C0.33 0 0.66 0 1 0 C1.369 9.41 1.369 9.41 -1 14 C-1.33 13.01 -1.66 12.02 -2 11 C-5.96 11 -9.92 11 -14 11 C-14.33 11.99 -14.66 12.98 -15 14 C-22.958 15.595 -22.958 15.595 -27.062 13.25 C-29 11 -29 11 -29 8 C-19.43 8 -9.86 8 0 8 C0 5.36 0 2.72 0 0 Z " fill="#C58C47" transform="translate(744,318)"/>
<path d="M0 0 C0.66 1.32 1.32 2.64 2 4 C2.33 3.67 2.66 3.34 3 3 C5.671 2.859 8.324 2.958 11 3 C11.749 6.663 12.238 9.424 11 13 C10.34 13 9.68 13 9 13 C9.33 14.32 9.66 15.64 10 17 C5.554 15.603 2.951 13.607 0 10 C-1.048 6.333 -1.252 3.616 0 0 Z " fill="#1E252C" transform="translate(197,206)"/>
<path d="M0 0 C1.938 1.688 1.938 1.688 3 4 C2.862 6.819 2.355 8.458 0.812 10.812 C-1.878 12.575 -3.865 12.4 -7 12 C-9.313 8.531 -9.425 7.078 -9 3 C-6.798 -0.669 -4.01 -0.585 0 0 Z " fill="#EEECEE" transform="translate(209,521)"/>
<path d="M0 0 C3.914 0.979 7.107 2.35 10.75 4.062 C11.92 4.61 13.091 5.158 14.297 5.723 C15.189 6.144 16.081 6.566 17 7 C17 7.66 17 8.32 17 9 C15.275 9.535 13.545 10.052 11.812 10.562 C10.85 10.853 9.887 11.143 8.895 11.441 C6 12 6 12 1 11 C0.67 7.37 0.34 3.74 0 0 Z " fill="#4A5273" transform="translate(722,267)"/>
<path d="M0 0 C3.152 1.393 5.262 3.025 7.672 5.477 C8.336 6.147 9 6.817 9.684 7.508 C10.366 8.206 11.047 8.905 11.75 9.625 C12.447 10.331 13.145 11.038 13.863 11.766 C15.58 13.506 17.292 15.251 19 17 C18.01 17.33 17.02 17.66 16 18 C15.312 20.062 15.312 20.062 15 22 C13.161 19.88 11.328 17.754 9.5 15.625 C9.238 15.323 9.238 15.323 7.91 13.797 C4 9.227 4 9.227 4 7 C3.34 7 2.68 7 2 7 C0 4 0 4 0 0 Z " fill="#8DB8D4" transform="translate(608,370)"/>
<path d="M0 0 C8.776 -0.446 8.776 -0.446 13 3 C15.101 5.256 17.078 7.59 19 10 C18.67 10.495 18.67 10.495 17 13 C16.108 12.229 15.216 11.458 14.297 10.664 C13.115 9.651 11.932 8.638 10.75 7.625 C10.163 7.117 9.577 6.609 8.973 6.086 C6.118 3.649 3.512 1.443 0 0 Z " fill="#79A4C3" transform="translate(590,360)"/>
<path d="M0 0 C4.62 0 9.24 0 14 0 C13.67 1.65 13.34 3.3 13 5 C9.987 5.592 7.076 6.048 4 6 C1.438 4.188 1.438 4.188 0 2 C0 1.34 0 0.68 0 0 Z " fill="#F3BC54" transform="translate(716,327)"/>
<path d="M0 0 C0.66 0.33 1.32 0.66 2 1 C1.08 1.848 0.159 2.696 -0.789 3.57 C-9.734 11.848 -18.442 20.323 -27 29 C-27.66 28.67 -28.32 28.34 -29 28 C-27.938 26.938 -26.875 25.875 -25.812 24.812 C-25.173 24.172 -24.534 23.531 -23.875 22.871 C-22.364 21.363 -20.84 19.867 -19.312 18.375 C-17 16 -17 16 -15.207 13.645 C-12.822 10.786 -10.288 8.625 -7.375 6.312 C-2.126 2.126 -2.126 2.126 0 0 Z " fill="#99BBD2" transform="translate(243,350)"/>
<path d="M0 0 C0.33 0.99 0.66 1.98 1 3 C-7.469 9.032 -7.469 9.032 -11.223 8.953 C-13.125 8.375 -13.125 8.375 -16 7 C-11.065 3.014 -6.324 0.753 0 0 Z " fill="#6996B6" transform="translate(285,327)"/>
<path d="M0 0 C4.472 1.418 8.711 3.113 13 5 C11.68 5.33 10.36 5.66 9 6 C9 6.66 9 7.32 9 8 C6.36 8 3.72 8 1 8 C0.67 5.36 0.34 2.72 0 0 Z " fill="#282F38" transform="translate(471,137)"/>
<path d="M0 0 C0 1.65 0 3.3 0 5 C-2.805 5.165 -2.805 5.165 -17 6 C-17 5.34 -17 4.68 -17 4 C-14.919 3.326 -12.835 2.661 -10.75 2 C-9.59 1.629 -8.43 1.257 -7.234 0.875 C-4 0 -4 0 0 0 Z " fill="#081018" transform="translate(408,140)"/>
<path d="M0 0 C5.348 0.535 9.358 2.467 14 5 C14 5.33 14 5.66 14 6 C10.37 6.33 6.74 6.66 3 7 C0 2.25 0 2.25 0 0 Z " fill="#2E3032" transform="translate(716,250)"/>
<path d="M0 0 C0 1.98 0 3.96 0 6 C-0.66 6 -1.32 6 -2 6 C-2.33 6.99 -2.66 7.98 -3 9 C-6.062 10.188 -6.062 10.188 -9 11 C-7.854 7.12 -6.774 3.996 -4 1 C-1 0 -1 0 0 0 Z " fill="#BC9552" transform="translate(712,307)"/>
<path d="M0 0 C4.274 1.583 6.265 4.506 9 8 C8.34 9.32 7.68 10.64 7 12 C5.5 10.625 5.5 10.625 4 9 C4 8.34 4 7.68 4 7 C3.34 7 2.68 7 2 7 C0 4 0 4 0 0 Z " fill="#86B2CF" transform="translate(608,370)"/>
<path d="M0 0 C0.66 1.32 1.32 2.64 2 4 C-2.62 4 -7.24 4 -12 4 C-7.545 0.659 -5.38 -0.145 0 0 Z " fill="#E5B152" transform="translate(728,312)"/>
<path d="M0 0 C3.192 0.798 5.982 1.742 9 3 C8.01 3.33 7.02 3.66 6 4 C6 4.66 6 5.32 6 6 C4.68 6 3.36 6 2 6 C2 7.65 2 9.3 2 11 C1.67 11 1.34 11 1 11 C0.67 7.37 0.34 3.74 0 0 Z " fill="#4B5569" transform="translate(722,267)"/>
<path d="M0 0 C-0.66 1.32 -1.32 2.64 -2 4 C-6.29 4 -10.58 4 -15 4 C-12.198 2.132 -10.12 1.273 -6.938 0.312 C-6.06 0.041 -5.182 -0.231 -4.277 -0.512 C-2 -1 -2 -1 0 0 Z " fill="#060E16" transform="translate(354,157)"/>
<path d="M0 0 C0 1.32 0 2.64 0 4 C-4.29 4 -8.58 4 -13 4 C-9.387 0.387 -4.977 -0.293 0 0 Z " fill="#060F16" transform="translate(432,133)"/>
<path d="M0 0 C-0.5 2.312 -0.5 2.312 -2 5 C-4.569 6.342 -7.218 7.204 -10 8 C-10.66 7.34 -11.32 6.68 -12 6 C-10.899 5.183 -9.794 4.371 -8.688 3.562 C-8.073 3.11 -7.458 2.658 -6.824 2.191 C-4.58 0.725 -2.698 0 0 0 Z " fill="#1C2A35" transform="translate(475,547)"/>
<path d="M0 0 C2.875 0.25 2.875 0.25 6 1 C6.66 2.32 7.32 3.64 8 5 C5.03 5 2.06 5 -1 5 C-0.67 3.35 -0.34 1.7 0 0 Z " fill="#82AFD0" transform="translate(345,585)"/>
<path d="M0 0 C0.423 0.041 0.423 0.041 2.562 0.25 C3.223 1.24 3.882 2.23 4.562 3.25 C2.748 3.745 2.748 3.745 -6.438 6.25 C-2.929 0.3 -2.929 0.3 0 0 Z " fill="#192937" transform="translate(413.4375,580.75)"/>
<path d="M0 0 C0 1.32 0 2.64 0 4 C-4.29 4 -8.58 4 -13 4 C-10.345 2.23 -8.925 1.579 -5.938 0.875 C-5.245 0.707 -4.553 0.54 -3.84 0.367 C-2 0 -2 0 0 0 Z " fill="#050E16" transform="translate(248,189)"/>
<path d="M0 0 C0.33 0.66 0.66 1.32 1 2 C0.196 2.474 -0.609 2.949 -1.438 3.438 C-4 5 -4 5 -5 6 C-7.333 6.041 -9.667 6.042 -12 6 C-9.667 2.501 -8.792 2.367 -4.875 1.312 C-4.42 1.187 -4.42 1.187 -2.117 0.551 C-1.768 0.46 -1.768 0.46 0 0 Z " fill="#081017" transform="translate(303,171)"/>
<path d="M0 0 C5.394 -0.274 8.519 -0.361 13 3 C11.68 3.99 10.36 4.98 9 6 C8.258 5.381 7.515 4.762 6.75 4.125 C4.512 2.396 2.563 1.139 0 0 Z " fill="#6F9AB9" transform="translate(590,360)"/>
<path d="M0 0 C2.64 0 5.28 0 8 0 C8.33 1.65 8.66 3.3 9 5 C8.01 5.33 7.02 5.66 6 6 C2.812 3.625 2.812 3.625 0 1 C0 0.67 0 0.34 0 0 Z " fill="#DBB36F" transform="translate(691,237)"/>
<path d="M0 0 C5.28 0.33 10.56 0.66 16 1 C16 1.33 16 1.66 16 2 C10.293 2.993 4.786 3.105 -1 3 C-0.67 2.01 -0.34 1.02 0 0 Z " fill="#6C98B7" transform="translate(697,730)"/>
<path d="M0 0 C2.125 0.938 2.125 0.938 4 2 C3.216 2.206 2.433 2.413 1.625 2.625 C-1 4 -1 4 -2.312 7.125 C-2.539 8.074 -2.766 9.023 -3 10 C-4.32 8.68 -5.64 7.36 -7 6 C-2.25 1.125 -2.25 1.125 0 0 Z " fill="#35414A" transform="translate(203,519)"/>
<path d="M0 0 C0.66 0.33 1.32 0.66 2 1 C1.67 2.32 1.34 3.64 1 5 C-2.3 5.33 -5.6 5.66 -9 6 C-6.026 3.769 -3.275 1.724 0 0 Z " fill="#97B1C2" transform="translate(335,584)"/>
<path d="M0 0 C1.65 0.33 3.3 0.66 5 1 C3.63 4.161 3.011 4.993 0 7 C-0.934 3.99 -1.044 3.133 0 0 Z " fill="#85ABC2" transform="translate(193,521)"/>
<path d="M0 0 C3.96 0 7.92 0 12 0 C11.01 0.33 10.02 0.66 9 1 C9 1.66 9 2.32 9 3 C6.188 3.188 6.188 3.188 3 3 C2.01 2.01 1.02 1.02 0 0 Z " fill="#B57635" transform="translate(703,326)"/>
<path d="M0 0 C0.66 0 1.32 0 2 0 C2 0.66 2 1.32 2 2 C2.99 2.33 3.98 2.66 5 3 C0.734 4.138 -2.565 5 -7 5 C-7 4.34 -7 3.68 -7 3 C-6.515 2.845 -6.515 2.845 -4.062 2.062 C-1 1 -1 1 0 0 Z " fill="#454B53" transform="translate(686,297)"/>
<path d="M0 0 C0 0.33 0 0.66 0 1 C-1.98 1 -3.96 1 -6 1 C-6.289 1.577 -6.577 2.155 -6.875 2.75 C-7.917 4.833 -8.958 6.917 -10 9 C-9.516 2.59 -9.516 2.59 -7.25 0 C-4.419 -1.258 -2.915 -0.891 0 0 Z " fill="#BEBEC1" transform="translate(474,553)"/>
<path d="M0 0 C1.32 0 2.64 0 4 0 C4 1.98 4 3.96 4 6 C2.68 6 1.36 6 0 6 C0 4.02 0 2.04 0 0 Z " fill="#3B5073" transform="translate(724,273)"/>
<path d="M0 0 C0.33 0.66 0.66 1.32 1 2 C-0.093 3.342 -1.2 4.673 -2.312 6 C-2.62 6.371 -2.62 6.371 -4.176 8.25 C-6 10 -6 10 -9 10 C-8.064 8.894 -7.126 7.791 -6.188 6.688 C-5.665 6.073 -5.143 5.458 -4.605 4.824 C-3.128 3.146 -1.6 1.561 0 0 Z " fill="#8FB4CD" transform="translate(784,601)"/>
<path d="M0 0 C0.66 0.99 1.32 1.98 2 3 C1.192 4.169 0.378 5.336 -0.438 6.5 C-0.89 7.15 -1.342 7.799 -1.809 8.469 C-2.202 8.974 -2.595 9.479 -3 10 C-3.33 10 -3.66 10 -4 10 C-4 8.35 -4 6.7 -4 5 C-3.01 5 -2.02 5 -1 5 C-1.33 4.01 -1.66 3.02 -2 2 C-1.34 1.34 -0.68 0.68 0 0 Z " fill="#56788D" transform="translate(772,678)"/>
<path d="M0 0 C2.31 0 4.62 0 7 0 C7.33 0.99 7.66 1.98 8 3 C5.03 2.67 2.06 2.34 -1 2 C-0.67 1.34 -0.34 0.68 0 0 Z " fill="#8CB8D4" transform="translate(214,513)"/>
<path d="M0 0 C1.155 0.495 1.155 0.495 7 3 C7 3.33 7 3.66 7 4 C4.36 4.33 1.72 4.66 -1 5 C-0.67 3.35 -0.34 1.7 0 0 Z " fill="#444A4F" transform="translate(723,252)"/>
<path d="M0 0 C1.461 0.451 2.918 0.911 4.375 1.375 C5.187 1.63 5.999 1.885 6.836 2.148 C9 3 9 3 11 5 C9.02 5 7.04 5 5 5 C4.67 4.34 4.34 3.68 4 3 C2.68 3 1.36 3 0 3 C0 2.01 0 1.02 0 0 Z " fill="#4D5157" transform="translate(587,190)"/>
<path d="M0 0 C-6.625 2.875 -6.625 2.875 -10 4 C-10.99 3.34 -11.98 2.68 -13 2 C-11.588 1.466 -10.17 0.948 -8.75 0.438 C-7.961 0.147 -7.172 -0.143 -6.359 -0.441 C-3.809 -1.045 -2.447 -0.847 0 0 Z " fill="#5E6266" transform="translate(299,173)"/>
<path d="M0 0 C0.66 0.33 1.32 0.66 2 1 C2 1.99 2 2.98 2 4 C0.515 4.165 0.515 4.165 -7 5 C-6.01 4.34 -5.02 3.68 -4 3 C-2.662 2.006 -1.328 1.007 0 0 Z " fill="#9BADB9" transform="translate(406,601)"/>
<path d="M0 0 C0 3.867 -1.419 6.509 -3 10 C-3.66 9.01 -4.32 8.02 -5 7 C-3.707 4.116 -2.341 2.128 0 0 Z " fill="#7CABC9" transform="translate(791,610)"/>
<path d="M0 0 C1.32 1.65 2.64 3.3 4 5 C3.67 5.66 3.34 6.32 3 7 C1.02 5.68 -0.96 4.36 -3 3 C-2.01 2.67 -1.02 2.34 0 2 C0 1.34 0 0.68 0 0 Z " fill="#6B98B6" transform="translate(626,396)"/>
<path d="M0 0 C0.66 0.33 1.32 0.66 2 1 C0.726 3.038 -0.611 5.039 -2 7 C-2.66 7 -3.32 7 -4 7 C-2.926 4.085 -2.222 2.222 0 0 Z " fill="#CEB17D" transform="translate(704,340)"/>
<path d="M0 0 C1.858 3.135 2.201 5.375 2 9 C1.67 9.165 1.67 9.165 0 10 C-0.749 6.337 -1.238 3.576 0 0 Z " fill="#40444A" transform="translate(197,206)"/>
</svg>
